<svg width="131" height="108" viewBox="0 0 131 108" fill="none" xmlns="http://www.w3.org/2000/svg">
<path fill-rule="evenodd" clip-rule="evenodd" d="M7.36602 0.601315C5.92421 0.985287 3.77052 2.30698 2.86958 3.36018C1.85928 4.54154 1.02462 6.33299 0.713821 7.98638C0.329768 10.0308 0.329768 37.1703 0.713821 39.2148C1.29055 42.2843 3.16903 44.6599 6.10734 46.0362L7.78386 46.8217L30.0946 46.8983L52.4053 46.9749L56.3454 53.7225C58.5125 57.4338 60.2421 60.513 60.1893 60.5652C60.1361 60.6173 59.4658 60.3797 58.6992 60.0369C54.6428 58.2221 50.4285 58.8182 47.0515 61.6842C44.5057 63.8449 43.7271 66.5598 44.9816 68.9007C45.6881 70.2188 60.1315 84.3099 62.3355 85.8308C64.4729 87.306 68.5249 89.3007 71.4434 90.3141C74.0105 91.2056 78.2692 92.1218 79.8467 92.1218H80.8982L80.7406 93.6067C80.6416 94.538 80.7053 95.46 80.9111 96.081C81.4303 97.6456 85.5812 104.576 86.6082 105.594C88.1705 107.141 90.9388 107.749 93.0288 107.005C94.0902 106.627 126.811 88.0633 128.045 87.139C129.658 85.9305 130.573 83.3257 130.154 81.1348C129.903 79.8192 125.75 72.4849 124.556 71.2474C123.6 70.2569 121.919 69.5237 120.36 69.4177L119.022 69.3268L118.965 67.464C118.895 65.2079 119.028 65.4787 112.852 54.9792C110.319 50.6723 108.247 47.1112 108.247 47.0658C108.247 47.0206 111.584 46.947 115.662 46.9026L123.077 46.8217L124.754 46.0362C127.76 44.6282 129.638 42.1985 130.158 39.0463C130.517 36.8668 130.514 10.3118 130.154 8.12849C129.628 4.93794 127.79 2.53234 124.762 1.06878L123.335 0.379509L65.9464 0.331798C20.706 0.294238 8.30539 0.351339 7.36602 0.601315ZM7.90483 3.43403C6.29614 3.92205 4.7478 5.29755 4.07487 6.83649C3.51981 8.10616 3.51697 8.20031 3.58687 23.9346L3.65703 39.7559L4.4401 41.0047C5.3204 42.4086 7.28942 43.7354 8.87541 43.9933C9.40984 44.0803 19.0001 44.1526 30.1866 44.1542C49.4512 44.1567 50.517 44.1336 50.355 43.7128C50.2609 43.4684 48.3308 40.1076 46.0659 36.244C43.8011 32.3807 41.7763 28.8156 41.5667 28.3214C41.357 27.8276 41.1854 26.8122 41.1854 26.0648C41.1854 23.2275 42.6549 20.8729 45.1861 19.6545C46.4118 19.0645 46.8369 18.9899 48.468 19.0787C50.6478 19.1972 51.9851 19.7507 53.2995 21.078C53.8007 21.5843 55.7777 24.7012 57.6928 28.0045C60.4985 32.8441 61.2248 33.9285 61.4327 33.5882C62.059 32.5629 63.2712 31.3958 64.3697 30.7603C65.4115 30.1576 65.8322 30.072 67.7519 30.072C69.6338 30.072 70.112 30.1652 71.1274 30.7291L72.3108 31.3859L72.9113 30.272C74.9935 26.4099 80.6568 25.6308 83.9567 28.7526C84.4287 29.1993 85.2221 30.2784 85.7199 31.1506C86.5461 32.5984 87.0965 33.1314 87.0965 32.4837C87.0965 32.3444 87.5319 31.7556 88.0637 31.175C90.7333 28.2613 95.6635 28.1217 98.3274 30.8844C98.8386 31.4148 100.861 34.5894 102.821 37.9393L106.386 44.0301H114.473H122.561L123.947 43.2753C124.708 42.8601 125.604 42.1686 125.937 41.7389C127.369 39.8916 127.333 40.3654 127.331 23.5453L127.328 7.99298L126.719 6.70605C125.976 5.13716 124.535 3.91596 122.837 3.41754C120.974 2.87064 9.70955 2.88662 7.90483 3.43403ZM14.0628 14.2754C13.6863 14.5888 13.2509 15.0946 13.0956 15.3994C12.9099 15.764 12.8134 18.5729 12.8134 23.6082C12.8134 31.9901 12.8475 32.1975 14.3713 33.0829C15.9086 33.9765 16.5691 33.7417 23.3529 29.8896C26.848 27.9047 30.0267 25.9722 30.417 25.5948C31.0056 25.0253 31.1263 24.6898 31.1263 23.6242C31.1263 22.5728 30.9976 22.2045 30.417 21.5944C30.0267 21.1846 26.8682 19.2414 23.3975 17.2763C17.8165 14.1162 16.9519 13.7033 15.9176 13.7043C15.0819 13.7054 14.5521 13.8683 14.0628 14.2754ZM15.6506 23.6006C15.6506 27.637 15.7507 30.7065 15.8825 30.7065C16.3767 30.7065 28.3058 23.7772 28.2246 23.5374C28.1196 23.2275 16.426 16.5124 15.9731 16.502C15.7226 16.4965 15.6506 18.0811 15.6506 23.6006ZM46.46 22.167C44.6938 22.9555 43.6868 25.0522 44.1918 26.8896C44.3278 27.3837 49.6264 36.6277 55.9665 47.432C62.3066 58.2363 67.494 67.3359 67.494 67.6531C67.494 67.9703 67.3117 68.4094 67.0888 68.6289C66.3075 69.3974 65.6114 69.0921 63.6187 67.1075C61.3719 64.8699 58.545 62.918 56.6582 62.3014C55.0173 61.7651 52.308 61.8737 50.9286 62.5308C49.4533 63.2337 47.6653 64.9057 47.4201 65.8114C47.2986 66.2604 47.3024 66.908 47.4291 67.2755C47.7551 68.2208 62.6574 82.7184 64.4693 83.853C70.6539 87.725 80.2973 90.3562 83.4089 89.0206C83.8056 88.8503 90.8622 84.9017 99.0901 80.2458C108.968 74.6562 114.327 71.4796 114.867 70.8939C115.905 69.7661 116.385 67.9551 116.01 66.5827C115.862 66.0418 113.057 61.0317 109.776 55.4492C106.496 49.8665 102.186 42.5289 100.199 39.1435C97.7651 34.9959 96.3272 32.806 95.7917 32.4309C94.5789 31.5813 92.3824 31.5036 91.247 32.27C89.9401 33.1524 89.36 34.0744 89.2221 35.4888C89.1173 36.5612 89.2218 36.9802 89.903 38.2174C90.8418 39.9233 90.905 40.6032 90.1839 41.2453C89.1135 42.1985 88.5357 41.6168 85.6397 36.6704C84.1687 34.1579 82.7254 31.7815 82.4324 31.3892C81.5882 30.2591 80.4255 29.6934 78.9455 29.6924C76.596 29.6906 74.8746 31.4158 74.8746 33.7722C74.8746 34.8264 75.1715 35.4811 77.2888 39.0975C79.6099 43.0616 79.6886 43.2464 79.3275 43.8793C79.0363 44.3899 78.7518 44.5376 78.0592 44.5376C77.1794 44.5376 77.133 44.481 74.9332 40.7309C70.5355 33.2339 70.1973 32.8636 67.7519 32.8636C66.0537 32.8636 65.2077 33.3202 64.1825 34.7903C63.6852 35.5037 63.5975 35.8999 63.6824 37.051C63.7711 38.2542 64.0984 38.98 66.0558 42.3119C67.8657 45.3931 68.2928 46.3088 68.1608 46.8257C67.9485 47.6581 66.85 48.1121 66.1572 47.6538C65.8874 47.4751 62.4879 41.9046 58.6027 35.2746C53.7893 27.0599 51.2823 23.024 50.7324 22.6052C49.7512 21.8579 47.6383 21.6411 46.46 22.167ZM101.888 81.918C92.6458 87.1811 84.8448 91.701 84.5523 91.9622C83.8265 92.6103 83.4063 93.9812 83.6284 94.9758C83.9204 96.2833 88.1558 103.268 89.0309 103.885C89.5481 104.249 90.1898 104.43 90.9654 104.43C92.0229 104.43 93.6385 103.571 109.149 94.7576C127.967 84.0655 127.477 84.4076 127.26 82.0974C127.165 81.0904 126.709 80.0955 125.049 77.2755C122.473 72.899 121.889 72.3227 120.043 72.3377C118.743 72.3483 118.067 72.7049 101.888 81.918Z" fill="#E26E5F"/>
</svg>
