<svg width="65" height="65" viewBox="0 0 65 65" fill="none" xmlns="http://www.w3.org/2000/svg">
<rect x="0.619141" y="0.914062" width="64" height="64" rx="6" fill="white"/>
<path fill-rule="evenodd" clip-rule="evenodd" d="M47.5602 33.7683C47.782 32.7677 47.8984 31.7284 47.8984 30.6628C47.8984 22.4924 41.0389 15.8708 32.5793 15.8708V30.6628H17.2603C17.2603 32.6834 17.6802 34.6092 18.4402 36.3631H22.1055V38.9051H27.8758V44.6527L28.6703 44.9704C29.3193 45.1354 29.9848 45.2601 30.6647 45.3426C29.7012 43.8206 29.1448 42.0334 29.1448 40.12C29.1448 34.5832 33.7937 30.094 39.528 30.094C42.7642 30.0922 45.6566 31.5248 47.5602 33.7683ZM26.1599 14.2611C27.4998 13.8731 28.8016 13.7186 30.3524 13.7186V28.5106L24.2544 28.5124V21.3024C25.3325 21.1304 26.1578 20.2228 26.1578 19.1326L26.1599 14.2611ZM23.6619 28.5124H15.0315C15.0315 25.9072 15.7296 23.4583 16.955 21.3322H18.653L23.6619 28.5124ZM45.2879 48.457L49.3149 53.0882C49.7622 53.6025 50.3494 53.8817 51.0439 53.9115C51.7384 53.9413 52.3474 53.7114 52.8401 53.2374L52.9183 53.1619C53.411 52.6861 53.6474 52.098 53.6165 51.4274C53.5855 50.7568 53.2965 50.1898 52.7638 49.7579L48.0057 45.8993C47.2713 46.9052 46.3496 47.7723 45.2879 48.457ZM22.7603 19.8877V24.6344L19.4478 19.8877H12.9374C12.5065 19.8877 12.1556 19.5489 12.1556 19.1329V12.6689C12.1556 12.2529 12.5065 11.9141 12.9374 11.9141H23.8824C24.3133 11.9141 24.6642 12.2529 24.6642 12.6689V19.1329C24.6642 19.5489 24.3133 19.8877 23.8824 19.8877H22.7603ZM18.4097 13.2535H14.4662C14.1244 13.2535 13.8463 13.5203 13.8463 13.8504C13.8463 14.1804 14.1226 14.449 14.4662 14.449H18.4097C18.7515 14.449 19.0296 14.1821 19.0296 13.8504C19.0278 13.5221 18.7514 13.2535 18.4097 13.2535ZM18.4097 17.2701C18.7515 17.2701 19.0296 17.5387 19.0296 17.8687C19.0296 18.1988 18.7514 18.4656 18.4097 18.4656H14.4662C14.1244 18.4656 13.8463 18.197 13.8463 17.8687C13.8463 17.5387 14.1226 17.2701 14.4662 17.2701H18.4097ZM22.3531 15.2618C22.6949 15.2618 22.973 15.5286 22.973 15.8587C22.973 16.1887 22.6967 16.4573 22.3531 16.4573H14.4664C14.1246 16.4573 13.8465 16.1904 13.8465 15.8587C13.8465 15.5286 14.1228 15.2618 14.4664 15.2618H22.3531ZM39.5264 31.5373C44.4352 31.5373 48.4132 35.3801 48.4132 40.1184C48.4132 44.8584 44.4335 48.6995 39.5264 48.6995C34.6194 48.6995 30.6395 44.8567 30.6395 40.1184C30.6395 35.3784 34.6175 31.5373 39.5264 31.5373ZM39.5264 35.3573C40.8881 35.3573 42.1208 35.8892 43.0135 36.7512C43.9061 37.6132 44.457 38.8034 44.457 40.1183C44.457 41.4332 43.9061 42.6234 43.0135 43.4854C42.1208 44.3474 40.8881 44.8793 39.5264 44.8793C38.1646 44.8793 36.932 44.3474 36.0393 43.4854C35.1466 42.6234 34.5958 41.4332 34.5958 40.1183C34.5958 38.8034 35.1466 37.6132 36.0393 36.7512C36.932 35.8892 38.1646 35.3573 39.5264 35.3573ZM34.9812 35.7295C36.1448 34.606 37.7501 33.9125 39.5246 33.9125C41.299 33.9125 42.9062 34.6077 44.0679 35.7295C45.2315 36.8513 45.9496 38.4031 45.9496 40.1165C45.9496 41.8299 45.2297 43.3818 44.0679 44.5036C42.9044 45.6271 41.299 46.3205 39.5246 46.3205C37.7501 46.3205 36.143 45.6253 34.9812 44.5036C33.8177 43.38 33.0995 41.8299 33.0995 40.1165C33.0995 38.4049 33.8195 36.853 34.9812 35.7295ZM14.839 35.266H11.6191V49.8405H14.8371V35.266H14.839ZM26.3783 40.3485V49.8387H23.1603V40.3485H26.3783ZM20.6093 37.8082V49.8404H17.3895V37.8082H20.6093Z" fill="#CEB5FD"/>
</svg>
