<svg width="80" height="81" viewBox="0 0 80 81" fill="none" xmlns="http://www.w3.org/2000/svg">
<path d="M53.3181 65.2028H19.3021C18.0519 65.2028 17.0361 64.187 17.0361 62.9367C17.0361 61.7178 18.0519 60.7019 19.3052 60.6707H48.9236C49.3987 60.6707 49.8082 60.3425 49.9082 59.8799L53.8089 42.283C54.0058 41.386 53.7808 40.4733 53.1651 39.7075C52.4087 38.7667 51.1772 38.179 49.9488 38.179H23.5279L20.8149 26.8017C20.7055 26.3454 20.2991 26.0265 19.8334 26.0265L5.37788 26.0234C4.82152 26.0234 4.36833 26.4766 4.36833 27.033C4.36833 27.5893 4.82154 28.0425 5.37788 28.0425H19.0333L21.7462 39.4199C21.8556 39.8825 22.2713 40.195 22.7277 40.195H22.7308L49.952 40.1981C50.5646 40.1981 51.224 40.5076 51.5929 40.9702C51.8211 41.2546 51.9055 41.5484 51.8398 41.8454L48.1142 58.6517L21.1651 58.6486L17.205 38.9889L15.8703 32.3689C15.7766 31.897 15.3609 31.5594 14.8795 31.5594H5.37771C4.82136 31.5594 4.36816 32.0126 4.36816 32.569C4.36816 33.1253 4.82138 33.5785 5.37771 33.5785H14.0546L15.2235 39.3859L19.1055 58.6551C16.8364 58.7926 15.0172 60.6773 15.0172 62.9341C15.0172 65.297 16.9394 67.2193 19.3055 67.2193H20.9903C19.4744 68.0132 18.4367 69.601 18.4367 71.4263C18.4367 74.0455 20.5683 76.1741 23.1844 76.1741C25.8005 76.1741 27.9322 74.0424 27.9322 71.4263C27.9322 69.601 26.8945 68.0132 25.3786 67.2193H44.3294C42.8135 68.0132 41.7758 69.601 41.7758 71.4263C41.7758 74.0455 43.9075 76.1741 46.5236 76.1741C49.1396 76.1741 51.2713 74.0424 51.2713 71.4263C51.2713 69.601 50.2336 68.0132 48.7177 67.2193H53.3155C53.8718 67.2193 54.325 66.7661 54.325 66.2097C54.325 65.6534 53.8718 65.2002 53.3155 65.2002L53.3181 65.2028ZM25.9097 71.4321C25.9097 72.9355 24.6846 74.1608 23.1811 74.1608C21.6777 74.1608 20.4524 72.9356 20.4524 71.4321C20.4524 69.9286 21.6776 68.7034 23.1811 68.7034C24.6845 68.7034 25.9097 69.9286 25.9097 71.4321ZM49.2517 71.4321C49.2517 72.9355 48.0266 74.1608 46.5231 74.1608C45.0196 74.1608 43.7944 72.9356 43.7944 71.4321C43.7944 69.9286 45.0196 68.7034 46.5231 68.7034C48.0266 68.7034 49.2517 69.9286 49.2517 71.4321ZM33.9209 53.7792L33.427 45.1903C33.3958 44.634 33.8208 44.1558 34.3772 44.1245C34.9304 44.0933 35.4118 44.5184 35.443 45.0747L35.9368 53.6635C35.9681 54.2199 35.543 54.6981 34.9867 54.7293C34.9679 54.7293 34.946 54.7325 34.9273 54.7325C34.3959 54.7325 33.9521 54.3168 33.9209 53.7792ZM25.9412 53.9667L23.7752 45.3779C23.6376 44.8372 23.9658 44.2902 24.5066 44.1527C25.0473 44.0152 25.5974 44.3434 25.7318 44.8841L27.8978 53.4729C28.0353 54.0136 27.7071 54.5606 27.1664 54.6981C27.0851 54.72 27.0007 54.7293 26.9195 54.7293C26.4694 54.7293 26.0569 54.423 25.9412 53.9667ZM43.3477 54.7293C42.7913 54.7106 42.3537 54.2449 42.3693 53.6885L42.6444 45.0997C42.6631 44.5433 43.1288 44.1057 43.6852 44.1213C44.2416 44.1401 44.6792 44.6058 44.6636 45.1622L44.3885 53.751C44.3729 54.298 43.9228 54.7293 43.379 54.7293H43.3477ZM62.1264 8.54863C56.6816 8.54863 52.2526 12.9776 52.2526 18.4225C52.2526 23.8673 56.6815 28.2964 62.1264 28.2964C67.5712 28.2964 72.0003 23.8674 72.0003 18.4225C72.0003 12.9777 67.5713 8.54863 62.1264 8.54863ZM62.1264 26.2768C57.7943 26.2768 54.2718 22.7543 54.2718 18.4222C54.2718 14.0901 57.7943 10.5676 62.1264 10.5676C66.4585 10.5676 69.981 14.0901 69.981 18.4222C69.981 22.7543 66.4585 26.2768 62.1264 26.2768ZM60.3386 16.2533C60.3386 16.8722 60.5698 17.069 62.3014 17.3722C63.661 17.6098 65.9365 18.0098 65.9365 20.479C65.9365 21.9418 64.7676 23.142 63.1391 23.4952V24.2704C63.1391 24.8267 62.6859 25.2799 62.1295 25.2799C61.5732 25.2799 61.12 24.8267 61.12 24.2704V23.4952C59.4884 23.142 58.3226 21.9418 58.3226 20.479C58.3226 19.9227 58.7758 19.4695 59.3321 19.4695C59.8885 19.4695 60.3417 19.9227 60.3417 20.479C60.3417 21.001 61.0762 21.5824 62.1295 21.5824C63.1829 21.5824 63.9174 21.001 63.9174 20.479C63.9174 19.8602 63.6861 19.6633 61.9545 19.3601C60.5949 19.1226 58.3195 18.7225 58.3195 16.2533C58.3195 14.7905 59.4884 13.5903 61.1169 13.2371V12.5745C61.1169 12.0181 61.5701 11.5649 62.1264 11.5649C62.6828 11.5649 63.136 12.0182 63.136 12.5745V13.2371C64.7676 13.5903 65.9334 14.7905 65.9334 16.2533C65.9334 16.8096 65.4802 17.2628 64.9238 17.2628C64.3675 17.2628 63.9143 16.8096 63.9143 16.2533C63.9143 15.7313 63.1798 15.15 62.1264 15.15C61.0731 15.15 60.3386 15.7313 60.3386 16.2533ZM62.1264 4.91675C54.6781 4.91675 48.6207 10.9773 48.6207 18.4225C48.6207 25.8677 54.6812 31.9282 62.1264 31.9282C69.5716 31.9282 75.6322 25.8709 75.6322 18.4225C75.6322 10.9741 69.5748 4.91675 62.1264 4.91675ZM62.1264 29.9087C55.7939 29.9087 50.6402 24.7546 50.6402 18.4225C50.6402 12.09 55.7943 6.93633 62.1264 6.93633C68.4589 6.93633 73.6126 12.0904 73.6126 18.4225C73.6126 24.755 68.4585 29.9087 62.1264 29.9087ZM28.3953 30.8557V23.0324C28.3953 20.2288 30.677 17.947 33.4806 17.947H39.9318L38.1815 16.1967C37.7877 15.8029 37.7877 15.1621 38.1815 14.7683C38.5753 14.3745 39.2161 14.3745 39.6099 14.7683L43.0824 18.2408C43.4762 18.6346 43.4762 19.2754 43.0824 19.6692L39.6099 23.1417C39.2161 23.5355 38.5753 23.5355 38.1815 23.1417C37.7877 22.7479 37.7877 22.1071 38.1815 21.7133L39.9318 19.9629H33.4806C31.7896 19.9629 30.4144 21.3382 30.4144 23.0291V30.8524C30.4144 31.4088 29.9612 31.862 29.4049 31.862C28.8485 31.862 28.3953 31.4088 28.3953 30.8524L28.3953 30.8557ZM66.2584 39.7542V49.2904C66.2584 52.094 63.9767 54.3758 61.173 54.3758H58.0037L59.754 56.1261C60.1479 56.5199 60.1479 57.1607 59.754 57.5545C59.5571 57.7514 59.2977 57.8514 59.0383 57.8514C58.7789 57.8514 58.5226 57.7514 58.3257 57.5545L54.8532 54.082C54.6625 53.8914 54.5562 53.6351 54.5562 53.3663C54.5562 53.0975 54.6625 52.8412 54.8532 52.6505L58.3257 49.178C58.7195 48.7842 59.3603 48.7842 59.7541 49.178C60.1479 49.5718 60.1479 50.2126 59.7541 50.6064L58.0038 52.3568H61.1731C62.864 52.3568 64.2393 50.9815 64.2393 49.2906V39.7544C64.2393 39.198 64.6925 38.7448 65.2488 38.7448C65.8052 38.7448 66.2584 39.1979 66.2584 39.7542Z" fill="#EB9646"/>
</svg>
