<svg width="628" height="446" viewBox="0 0 628 446" fill="none" xmlns="http://www.w3.org/2000/svg">
<g filter="url(#filter0_d_76_2773)">
<path d="M24 37.8489C24 28.215 31.8098 20.4053 41.4436 20.4053H586.556C596.19 20.4053 604 28.215 604 37.8489V399.962C604 409.596 596.19 417.405 586.556 417.405H41.4436C31.8098 417.405 24 409.596 24 399.962V37.8489Z" fill="white"/>
</g>
<path d="M55.8722 86.0209C55.8722 86.9171 55.7043 87.6847 55.3686 88.3237C55.0356 88.9599 54.5807 89.4473 54.004 89.7857C53.43 90.1242 52.7788 90.2934 52.0505 90.2934C51.3222 90.2934 50.6697 90.1242 50.093 89.7857C49.519 89.4446 49.0641 88.9559 48.7284 88.3196C48.3953 87.6806 48.2288 86.9144 48.2288 86.0209C48.2288 85.1247 48.3953 84.3585 48.7284 83.7222C49.0641 83.0832 49.519 82.5945 50.093 82.2561C50.6697 81.9176 51.3222 81.7484 52.0505 81.7484C52.7788 81.7484 53.43 81.9176 54.004 82.2561C54.5807 82.5945 55.0356 83.0832 55.3686 83.7222C55.7043 84.3585 55.8722 85.1247 55.8722 86.0209ZM54.3573 86.0209C54.3573 85.3901 54.2585 84.858 54.0609 84.4248C53.8659 83.9889 53.5952 83.6599 53.2486 83.4379C52.902 83.2132 52.5027 83.1008 52.0505 83.1008C51.5983 83.1008 51.199 83.2132 50.8524 83.4379C50.5059 83.6599 50.2338 83.9889 50.0361 84.4248C49.8412 84.858 49.7437 85.3901 49.7437 86.0209C49.7437 86.6518 49.8412 87.1852 50.0361 87.6211C50.2338 88.0543 50.5059 88.3832 50.8524 88.608C51.199 88.83 51.5983 88.941 52.0505 88.941C52.5027 88.941 52.902 88.83 53.2486 88.608C53.5952 88.3832 53.8659 88.0543 54.0609 87.6211C54.2585 87.1852 54.3573 86.6518 54.3573 86.0209ZM56.8882 90.1797V81.8621H60.0073C60.6463 81.8621 61.1824 81.9813 61.6156 82.2195C62.0515 82.4578 62.3805 82.7854 62.6025 83.2024C62.8272 83.6166 62.9396 84.0877 62.9396 84.6157C62.9396 85.1491 62.8272 85.6229 62.6025 86.0372C62.3778 86.4514 62.0461 86.7777 61.6075 87.0159C61.1688 87.2515 60.6287 87.3693 59.987 87.3693H57.9198V86.1306H59.7839C60.1576 86.1306 60.4635 86.0656 60.7018 85.9356C60.9401 85.8057 61.1161 85.627 61.2298 85.3995C61.3462 85.1721 61.4044 84.9108 61.4044 84.6157C61.4044 84.3206 61.3462 84.0607 61.2298 83.8359C61.1161 83.6112 60.9387 83.4366 60.6977 83.312C60.4595 83.1848 60.1522 83.1211 59.7758 83.1211H58.395V90.1797H56.8882ZM63.8399 90.1797V81.8621H66.959C67.5979 81.8621 68.134 81.9813 68.5672 82.2195C69.0031 82.4578 69.3321 82.7854 69.5541 83.2024C69.7789 83.6166 69.8912 84.0877 69.8912 84.6157C69.8912 85.1491 69.7789 85.6229 69.5541 86.0372C69.3294 86.4514 68.9977 86.7777 68.5591 87.0159C68.1205 87.2515 67.5803 87.3693 66.9387 87.3693H64.8714V86.1306H66.7356C67.1092 86.1306 67.4152 86.0656 67.6534 85.9356C67.8917 85.8057 68.0677 85.627 68.1814 85.3995C68.2978 85.1721 68.356 84.9108 68.356 84.6157C68.356 84.3206 68.2978 84.0607 68.1814 83.8359C68.0677 83.6112 67.8903 83.4366 67.6494 83.312C67.4111 83.1848 67.1038 83.1211 66.7275 83.1211H65.3466V90.1797H63.8399ZM78.2237 86.0209C78.2237 86.9171 78.0558 87.6847 77.7201 88.3237C77.3871 88.9599 76.9322 89.4473 76.3555 89.7857C75.7815 90.1242 75.1303 90.2934 74.402 90.2934C73.6737 90.2934 73.0212 90.1242 72.4445 89.7857C71.8705 89.4446 71.4156 88.9559 71.0799 88.3196C70.7468 87.6806 70.5803 86.9144 70.5803 86.0209C70.5803 85.1247 70.7468 84.3585 71.0799 83.7222C71.4156 83.0832 71.8705 82.5945 72.4445 82.2561C73.0212 81.9176 73.6737 81.7484 74.402 81.7484C75.1303 81.7484 75.7815 81.9176 76.3555 82.2561C76.9322 82.5945 77.3871 83.0832 77.7201 83.7222C78.0558 84.3585 78.2237 85.1247 78.2237 86.0209ZM76.7088 86.0209C76.7088 85.3901 76.61 84.858 76.4124 84.4248C76.2174 83.9889 75.9467 83.6599 75.6001 83.4379C75.2535 83.2132 74.8542 83.1008 74.402 83.1008C73.9499 83.1008 73.5505 83.2132 73.2039 83.4379C72.8574 83.6599 72.5853 83.9889 72.3876 84.4248C72.1927 84.858 72.0952 85.3901 72.0952 86.0209C72.0952 86.6518 72.1927 87.1852 72.3876 87.6211C72.5853 88.0543 72.8574 88.3832 73.2039 88.608C73.5505 88.83 73.9499 88.941 74.402 88.941C74.8542 88.941 75.2535 88.83 75.6001 88.608C75.9467 88.3832 76.2174 88.0543 76.4124 87.6211C76.61 87.1852 76.7088 86.6518 76.7088 86.0209ZM79.2397 90.1797V81.8621H82.3588C82.9978 81.8621 83.5339 81.9732 83.9671 82.1952C84.403 82.4172 84.732 82.7286 84.954 83.1293C85.1787 83.5273 85.2911 83.9916 85.2911 84.5223C85.2911 85.0557 85.1774 85.5187 84.9499 85.9113C84.7252 86.3011 84.3935 86.603 83.9549 86.8169C83.5163 87.0281 82.9775 87.1337 82.3385 87.1337H80.117V85.8828H82.1355C82.5091 85.8828 82.815 85.8314 83.0533 85.7285C83.2916 85.6229 83.4676 85.4699 83.5813 85.2696C83.6977 85.0665 83.7559 84.8174 83.7559 84.5223C83.7559 84.2272 83.6977 83.9754 83.5813 83.7669C83.4649 83.5557 83.2875 83.396 83.0492 83.2877C82.811 83.1767 82.5037 83.1211 82.1273 83.1211H80.7465V90.1797H79.2397ZM83.5366 86.4108L85.5957 90.1797H83.9143L81.8918 86.4108H83.5366ZM85.904 83.1252V81.8621H92.5402V83.1252H89.9694V90.1797H88.4749V83.1252H85.904ZM98.6542 81.8621H100.161V87.2962C100.161 87.8918 100.02 88.4157 99.7386 88.8679C99.4597 89.32 99.0671 89.6734 98.5608 89.9279C98.0545 90.1797 97.4629 90.3056 96.786 90.3056C96.1064 90.3056 95.5135 90.1797 95.0072 89.9279C94.5009 89.6734 94.1083 89.32 93.8294 88.8679C93.5505 88.4157 93.4111 87.8918 93.4111 87.2962V81.8621H94.9178V87.1703C94.9178 87.5168 94.9936 87.8255 95.1452 88.0962C95.2996 88.367 95.5162 88.5795 95.7951 88.7339C96.0739 88.8855 96.4043 88.9613 96.786 88.9613C97.1678 88.9613 97.4981 88.8855 97.777 88.7339C98.0586 88.5795 98.2752 88.367 98.4268 88.0962C98.5784 87.8255 98.6542 87.5168 98.6542 87.1703V81.8621ZM108.225 81.8621V90.1797H106.885L102.966 84.5142H102.897V90.1797H101.39V81.8621H102.739L106.654 87.5317H106.727V81.8621H108.225ZM110.965 81.8621V90.1797H109.459V81.8621H110.965ZM111.823 83.1252V81.8621H118.459V83.1252H115.888V90.1797H114.394V83.1252H111.823ZM120.837 81.8621V90.1797H119.33V81.8621H120.837ZM122.06 90.1797V81.8621H127.47V83.1252H123.567V85.3833H127.189V86.6464H123.567V88.9166H127.502V90.1797H122.06ZM133.119 84.1487C133.081 83.794 132.921 83.5178 132.639 83.3202C132.361 83.1225 131.998 83.0237 131.551 83.0237C131.237 83.0237 130.968 83.0711 130.743 83.1658C130.518 83.2606 130.346 83.3892 130.227 83.5516C130.108 83.7141 130.047 83.8996 130.044 84.108C130.044 84.2813 130.084 84.4316 130.162 84.5588C130.243 84.6861 130.353 84.7944 130.491 84.8838C130.629 84.9704 130.782 85.0435 130.95 85.1031C131.118 85.1626 131.287 85.2127 131.458 85.2533L132.237 85.4483C132.551 85.5214 132.853 85.6202 133.143 85.7447C133.435 85.8693 133.697 86.0263 133.927 86.2159C134.16 86.4054 134.344 86.6342 134.479 86.9022C134.615 87.1703 134.682 87.4843 134.682 87.8444C134.682 88.3318 134.558 88.7609 134.309 89.1319C134.06 89.5001 133.699 89.7884 133.228 89.9969C132.76 90.2027 132.193 90.3056 131.527 90.3056C130.88 90.3056 130.318 90.2054 129.841 90.0051C129.367 89.8047 128.996 89.5123 128.728 89.1278C128.463 88.7433 128.32 88.2749 128.298 87.7226H129.78C129.802 88.0123 129.891 88.2533 130.048 88.4455C130.205 88.6377 130.41 88.7812 130.662 88.876C130.916 88.9708 131.2 89.0182 131.514 89.0182C131.842 89.0182 132.129 88.9694 132.375 88.8719C132.625 88.7718 132.82 88.6337 132.96 88.4577C133.101 88.279 133.173 88.0705 133.176 87.8323C133.173 87.6157 133.109 87.437 132.985 87.2962C132.86 87.1527 132.685 87.0335 132.461 86.9388C132.239 86.8413 131.979 86.7547 131.681 86.6788L130.735 86.4352C130.05 86.2592 129.508 85.9925 129.11 85.6351C128.715 85.275 128.517 84.7971 128.517 84.2015C128.517 83.7114 128.65 83.2822 128.915 82.914C129.183 82.5458 129.547 82.2602 130.008 82.0571C130.468 81.8513 130.989 81.7484 131.571 81.7484C132.162 81.7484 132.679 81.8513 133.123 82.0571C133.569 82.2602 133.92 82.5431 134.175 82.9059C134.429 83.266 134.56 83.6803 134.569 84.1487H133.119Z" fill="#7A7A7A"/>
<g filter="url(#filter1_d_76_2773)">
<rect x="479.535" y="78.1797" width="100.845" height="31.338" rx="6.53521" fill="white" shape-rendering="crispEdges"/>
<rect x="479.944" y="78.5881" width="100.028" height="30.5211" rx="6.12676" stroke="#F2F2F2" stroke-width="0.816901" shape-rendering="crispEdges"/>
<path d="M488.792 98.3486V90.0311H490.299V97.0856H493.962V98.3486H488.792ZM496.592 98.4745C496.196 98.4745 495.84 98.4041 495.523 98.2633C495.209 98.1198 494.96 97.9087 494.776 97.6298C494.595 97.3509 494.504 97.0071 494.504 96.5982C494.504 96.2462 494.569 95.9552 494.699 95.725C494.829 95.4949 495.006 95.3108 495.231 95.1727C495.456 95.0346 495.709 94.9304 495.991 94.86C496.275 94.7869 496.569 94.7341 496.872 94.7016C497.237 94.6637 497.534 94.6298 497.761 94.6001C497.989 94.5676 498.154 94.5188 498.257 94.4538C498.362 94.3862 498.415 94.2819 498.415 94.1411V94.1168C498.415 93.8108 498.324 93.5739 498.143 93.406C497.962 93.2382 497.7 93.1542 497.359 93.1542C496.999 93.1542 496.713 93.2327 496.502 93.3898C496.294 93.5468 496.153 93.7323 496.08 93.9462L494.707 93.7512C494.815 93.3722 494.994 93.0554 495.243 92.8009C495.492 92.5437 495.797 92.3514 496.157 92.2242C496.517 92.0942 496.915 92.0293 497.351 92.0293C497.652 92.0293 497.951 92.0644 498.249 92.1348C498.546 92.2052 498.819 92.3217 499.065 92.4841C499.311 92.6439 499.509 92.8618 499.658 93.138C499.809 93.4142 499.885 93.7594 499.885 94.1736V98.3486H498.472V97.4917H498.423C498.334 97.665 498.208 97.8274 498.046 97.9791C497.886 98.128 497.684 98.2485 497.44 98.3405C497.199 98.4299 496.916 98.4745 496.592 98.4745ZM496.973 97.3942C497.268 97.3942 497.524 97.336 497.741 97.2196C497.958 97.1005 498.124 96.9434 498.24 96.7485C498.36 96.5535 498.419 96.341 498.419 96.1109V95.3758C498.373 95.4137 498.295 95.4489 498.184 95.4814C498.075 95.5138 497.953 95.5423 497.818 95.5666C497.683 95.591 497.549 95.6127 497.416 95.6316C497.283 95.6506 497.168 95.6668 497.071 95.6804C496.852 95.7101 496.655 95.7589 496.482 95.8266C496.309 95.8943 496.172 95.989 496.072 96.1109C495.972 96.23 495.921 96.3843 495.921 96.5738C495.921 96.8446 496.02 97.049 496.218 97.1871C496.416 97.3252 496.667 97.3942 496.973 97.3942ZM505.886 93.7594L504.545 93.9056C504.507 93.7702 504.441 93.6429 504.346 93.5238C504.254 93.4047 504.13 93.3086 503.973 93.2355C503.816 93.1624 503.623 93.1258 503.396 93.1258C503.09 93.1258 502.833 93.1921 502.624 93.3248C502.419 93.4575 502.317 93.6294 502.32 93.8406C502.317 94.022 502.383 94.1696 502.519 94.2833C502.657 94.397 502.884 94.4904 503.201 94.5635L504.265 94.7909C504.855 94.9182 505.294 95.1199 505.581 95.3961C505.871 95.6722 506.017 96.0337 506.02 96.4804C506.017 96.873 505.902 97.2196 505.674 97.5201C505.45 97.818 505.137 98.0508 504.736 98.2187C504.336 98.3865 503.875 98.4705 503.355 98.4705C502.592 98.4705 501.977 98.3107 501.512 97.9912C501.046 97.669 500.768 97.2209 500.679 96.6469L502.113 96.5089C502.178 96.7904 502.316 97.003 502.527 97.1465C502.738 97.29 503.013 97.3617 503.351 97.3617C503.701 97.3617 503.981 97.29 504.192 97.1465C504.406 97.003 504.513 96.8256 504.513 96.6145C504.513 96.4358 504.444 96.2882 504.306 96.1718C504.17 96.0554 503.959 95.966 503.672 95.9037L502.608 95.6804C502.01 95.5558 501.567 95.346 501.28 95.0509C500.993 94.753 500.851 94.3767 500.854 93.9218C500.851 93.5373 500.955 93.2043 501.166 92.9227C501.38 92.6384 501.677 92.4191 502.056 92.2648C502.438 92.1078 502.878 92.0293 503.376 92.0293C504.107 92.0293 504.682 92.1849 505.102 92.4963C505.524 92.8077 505.785 93.2287 505.886 93.7594ZM509.938 92.1105V93.2476H506.352V92.1105H509.938ZM507.238 90.6159H508.708V96.4723C508.708 96.67 508.738 96.8216 508.797 96.9272C508.86 97.0301 508.941 97.1005 509.041 97.1384C509.141 97.1763 509.252 97.1952 509.374 97.1952C509.466 97.1952 509.55 97.1885 509.626 97.1749C509.704 97.1614 509.764 97.1492 509.804 97.1384L510.052 98.2877C509.974 98.3148 509.861 98.3446 509.715 98.3771C509.572 98.4096 509.396 98.4285 509.187 98.4339C508.819 98.4448 508.487 98.3892 508.192 98.2674C507.897 98.1429 507.663 97.9506 507.489 97.6907C507.319 97.4308 507.235 97.1059 507.238 96.716V90.6159ZM513.476 98.3486L517.014 91.347V91.2901H512.908V90.0311H518.573V91.3185L515.04 98.3486H513.476ZM524.804 98.3486H521.985V90.0311H524.861C525.686 90.0311 526.396 90.1976 526.989 90.5306C527.584 90.8609 528.042 91.3361 528.361 91.9561C528.681 92.5762 528.841 93.318 528.841 94.1817C528.841 95.0481 528.68 95.7927 528.357 96.4155C528.038 97.0382 527.576 97.5161 526.972 97.8491C526.371 98.1821 525.648 98.3486 524.804 98.3486ZM523.492 97.045H524.731C525.31 97.045 525.793 96.9394 526.18 96.7282C526.568 96.5143 526.859 96.1961 527.054 95.7738C527.249 95.3487 527.346 94.818 527.346 94.1817C527.346 93.5455 527.249 93.0175 527.054 92.5978C526.859 92.1755 526.57 91.86 526.189 91.6515C525.81 91.4404 525.338 91.3348 524.775 91.3348H523.492V97.045ZM531.594 98.4745C531.199 98.4745 530.843 98.4041 530.526 98.2633C530.212 98.1198 529.963 97.9087 529.778 97.6298C529.597 97.3509 529.506 97.0071 529.506 96.5982C529.506 96.2462 529.571 95.9552 529.701 95.725C529.831 95.4949 530.009 95.3108 530.233 95.1727C530.458 95.0346 530.711 94.9304 530.993 94.86C531.277 94.7869 531.571 94.7341 531.874 94.7016C532.24 94.6637 532.536 94.6298 532.764 94.6001C532.991 94.5676 533.156 94.5188 533.259 94.4538C533.365 94.3862 533.417 94.2819 533.417 94.1411V94.1168C533.417 93.8108 533.327 93.5739 533.145 93.406C532.964 93.2382 532.703 93.1542 532.361 93.1542C532.001 93.1542 531.716 93.2327 531.505 93.3898C531.296 93.5468 531.155 93.7323 531.082 93.9462L529.709 93.7512C529.818 93.3722 529.996 93.0554 530.246 92.8009C530.495 92.5437 530.799 92.3514 531.159 92.2242C531.519 92.0942 531.917 92.0293 532.353 92.0293C532.654 92.0293 532.953 92.0644 533.251 92.1348C533.549 92.2052 533.821 92.3217 534.067 92.4841C534.314 92.6439 534.511 92.8618 534.66 93.138C534.812 93.4142 534.888 93.7594 534.888 94.1736V98.3486H533.474V97.4917H533.426C533.336 97.665 533.21 97.8274 533.048 97.9791C532.888 98.128 532.686 98.2485 532.443 98.3405C532.202 98.4299 531.919 98.4745 531.594 98.4745ZM531.976 97.3942C532.271 97.3942 532.527 97.336 532.743 97.2196C532.96 97.1005 533.126 96.9434 533.243 96.7485C533.362 96.5535 533.421 96.341 533.421 96.1109V95.3758C533.375 95.4137 533.297 95.4489 533.186 95.4814C533.078 95.5138 532.956 95.5423 532.82 95.5666C532.685 95.591 532.551 95.6127 532.418 95.6316C532.286 95.6506 532.171 95.6668 532.073 95.6804C531.854 95.7101 531.658 95.7589 531.484 95.8266C531.311 95.8943 531.174 95.989 531.074 96.1109C530.974 96.23 530.924 96.3843 530.924 96.5738C530.924 96.8446 531.023 97.049 531.22 97.1871C531.418 97.3252 531.67 97.3942 531.976 97.3942ZM536.648 100.688C536.448 100.688 536.262 100.672 536.091 100.639C535.924 100.609 535.79 100.574 535.689 100.534L536.031 99.3883C536.244 99.4506 536.435 99.4804 536.603 99.4777C536.771 99.475 536.919 99.4222 537.046 99.3193C537.176 99.2191 537.286 99.0512 537.375 98.8157L537.501 98.4786L535.239 92.1105H536.798L538.236 96.8216H538.301L539.743 92.1105H541.306L538.808 99.104C538.692 99.4344 538.538 99.7173 538.346 99.9528C538.153 100.191 537.918 100.373 537.639 100.497C537.363 100.624 537.032 100.688 536.648 100.688ZM546.846 93.7594L545.505 93.9056C545.467 93.7702 545.401 93.6429 545.306 93.5238C545.214 93.4047 545.09 93.3086 544.933 93.2355C544.776 93.1624 544.583 93.1258 544.356 93.1258C544.05 93.1258 543.793 93.1921 543.584 93.3248C543.379 93.4575 543.277 93.6294 543.28 93.8406C543.277 94.022 543.343 94.1696 543.479 94.2833C543.617 94.397 543.844 94.4904 544.161 94.5635L545.225 94.7909C545.815 94.9182 546.254 95.1199 546.541 95.3961C546.831 95.6722 546.977 96.0337 546.98 96.4804C546.977 96.873 546.862 97.2196 546.634 97.5201C546.41 97.818 546.097 98.0508 545.696 98.2187C545.295 98.3865 544.835 98.4705 544.315 98.4705C543.552 98.4705 542.937 98.3107 542.471 97.9912C542.006 97.669 541.728 97.2209 541.639 96.6469L543.073 96.5089C543.138 96.7904 543.276 97.003 543.487 97.1465C543.698 97.29 543.973 97.3617 544.311 97.3617C544.661 97.3617 544.941 97.29 545.152 97.1465C545.366 97.003 545.473 96.8256 545.473 96.6145C545.473 96.4358 545.404 96.2882 545.266 96.1718C545.13 96.0554 544.919 95.966 544.632 95.9037L543.568 95.6804C542.97 95.5558 542.527 95.346 542.24 95.0509C541.953 94.753 541.811 94.3767 541.814 93.9218C541.811 93.5373 541.915 93.2043 542.126 92.9227C542.34 92.6384 542.637 92.4191 543.016 92.2648C543.397 92.1078 543.837 92.0293 544.336 92.0293C545.067 92.0293 545.642 92.1849 546.062 92.4963C546.484 92.8077 546.745 93.2287 546.846 93.7594Z" fill="#7A7A7A"/>
<path d="M561.592 92.0664L564.571 95.0452C564.73 95.2047 564.989 95.2047 565.148 95.0452L568.127 92.0664" stroke="#CCCCCC" stroke-width="1.22535" stroke-linecap="round"/>
</g>
<path d="M60.4609 156.076C59.1891 156.058 57.9359 155.826 56.7013 155.38C55.4759 154.935 54.362 154.192 53.3594 153.152C52.3569 152.113 51.5539 150.715 50.9505 148.961C50.3564 147.207 50.0593 145.016 50.0593 142.389C50.0593 139.901 50.3053 137.691 50.7973 135.761C51.2986 133.83 52.018 132.201 52.9556 130.873C53.8932 129.536 55.0257 128.52 56.3532 127.824C57.6806 127.127 59.1706 126.779 60.8229 126.779C62.5217 126.779 64.0302 127.114 65.3484 127.782C66.6666 128.45 67.7341 129.374 68.551 130.553C69.3772 131.732 69.9017 133.073 70.1245 134.577H65.8775C65.5897 133.389 65.0188 132.419 64.1648 131.667C63.3108 130.915 62.1968 130.539 60.8229 130.539C58.7343 130.539 57.1051 131.449 55.9354 133.268C54.7751 135.088 54.1902 137.617 54.181 140.857H54.3898C54.8818 140.049 55.4852 139.362 56.2 138.796C56.9241 138.221 57.7317 137.78 58.6229 137.473C59.5233 137.158 60.4702 137 61.4635 137C63.1158 137 64.6104 137.404 65.9471 138.211C67.2932 139.01 68.3653 140.114 69.1637 141.525C69.962 142.936 70.3612 144.552 70.3612 146.371C70.3612 148.191 69.9481 149.838 69.1219 151.314C68.305 152.79 67.1539 153.96 65.6686 154.823C64.1834 155.677 62.4475 156.095 60.4609 156.076ZM60.447 152.456C61.5424 152.456 62.5217 152.187 63.385 151.648C64.2483 151.11 64.9306 150.386 65.4319 149.476C65.9332 148.566 66.1838 147.55 66.1838 146.427C66.1838 145.331 65.9378 144.333 65.4459 143.433C64.9631 142.533 64.2948 141.818 63.4407 141.289C62.596 140.76 61.6306 140.495 60.5444 140.495C59.7183 140.495 58.9524 140.653 58.2469 140.968C57.5507 141.284 56.938 141.72 56.4089 142.277C55.8797 142.834 55.462 143.475 55.1557 144.199C54.8586 144.914 54.7101 145.67 54.7101 146.469C54.7101 147.536 54.9561 148.525 55.4481 149.434C55.9494 150.344 56.6317 151.078 57.495 151.635C58.3676 152.182 59.3516 152.456 60.447 152.456ZM77.9697 151.788L77.7609 153.305C77.6216 154.419 77.3849 155.58 77.0507 156.787C76.7258 158.003 76.387 159.131 76.0342 160.17C75.6908 161.21 75.4076 162.036 75.1848 162.649H72.2329C72.3535 162.073 72.5206 161.293 72.7341 160.309C72.9477 159.335 73.1565 158.244 73.3607 157.037C73.565 155.83 73.7181 154.6 73.8203 153.347L73.9595 151.788H77.9697ZM81.5611 150.117V146.636L93.8842 127.169H96.6274V132.293H94.8868L86.0726 146.246V146.469H102.963V150.117H81.5611ZM95.0817 155.687V149.058L95.1096 147.471V127.169H99.1895V155.687H95.0817ZM106.572 155.687V127.169H110.874V140.787H111.223L123.184 127.169H128.6L117.099 140.008L128.642 155.687H123.462L114.244 142.946L110.874 146.817V155.687H106.572Z" fill="#242424"/>
<rect x="133.704" y="133.053" width="36.5352" height="17.2676" rx="3.26761" fill="#E0F0E4"/>
<path d="M139.843 143.489V138.783H140.779V143.489H139.843ZM137.959 141.602V140.669H142.666V141.602H137.959ZM146.648 144.784C146.17 144.784 145.743 144.702 145.367 144.537C144.993 144.372 144.698 144.143 144.479 143.851C144.264 143.556 144.148 143.215 144.131 142.828H145.224C145.238 143.039 145.309 143.222 145.437 143.378C145.567 143.531 145.736 143.649 145.945 143.733C146.154 143.816 146.386 143.858 146.641 143.858C146.922 143.858 147.17 143.809 147.386 143.712C147.604 143.614 147.775 143.479 147.898 143.305C148.021 143.128 148.082 142.925 148.082 142.695C148.082 142.456 148.021 142.246 147.898 142.065C147.777 141.882 147.6 141.738 147.365 141.634C147.133 141.529 146.852 141.477 146.523 141.477H145.921V140.6H146.523C146.787 140.6 147.02 140.552 147.219 140.457C147.421 140.362 147.579 140.23 147.693 140.06C147.806 139.888 147.863 139.688 147.863 139.458C147.863 139.237 147.813 139.046 147.713 138.884C147.616 138.719 147.477 138.59 147.296 138.497C147.117 138.404 146.906 138.358 146.662 138.358C146.43 138.358 146.213 138.401 146.011 138.487C145.812 138.57 145.649 138.691 145.524 138.849C145.398 139.004 145.331 139.191 145.322 139.409H144.281C144.293 139.024 144.406 138.685 144.622 138.393C144.84 138.1 145.128 137.872 145.485 137.707C145.843 137.542 146.24 137.46 146.676 137.46C147.133 137.46 147.528 137.549 147.86 137.728C148.194 137.904 148.451 138.14 148.632 138.434C148.816 138.729 148.906 139.052 148.904 139.402C148.906 139.801 148.795 140.14 148.57 140.419C148.347 140.697 148.05 140.884 147.679 140.979V141.035C148.152 141.107 148.519 141.295 148.779 141.599C149.041 141.903 149.171 142.28 149.169 142.73C149.171 143.122 149.062 143.474 148.841 143.785C148.623 144.096 148.325 144.341 147.947 144.519C147.568 144.696 147.136 144.784 146.648 144.784ZM150.973 144.753C150.783 144.753 150.62 144.685 150.483 144.551C150.346 144.414 150.277 144.249 150.277 144.056C150.277 143.866 150.346 143.704 150.483 143.569C150.62 143.432 150.783 143.364 150.973 143.364C151.164 143.364 151.327 143.432 151.464 143.569C151.601 143.704 151.67 143.866 151.67 144.056C151.67 144.184 151.637 144.301 151.572 144.408C151.51 144.512 151.426 144.596 151.322 144.659C151.217 144.721 151.101 144.753 150.973 144.753ZM152.9 143.294V142.424L155.981 137.557H156.667V138.838H156.232L154.028 142.326V142.382H158.251V143.294H152.9ZM156.28 144.687V143.03L156.287 142.633V137.557H157.307V144.687H156.28ZM163.185 143.35V142.974C163.185 142.705 163.241 142.459 163.352 142.236C163.466 142.011 163.631 141.831 163.847 141.696C164.065 141.559 164.328 141.491 164.637 141.491C164.952 141.491 165.217 141.558 165.431 141.693C165.644 141.827 165.805 142.007 165.914 142.232C166.026 142.457 166.082 142.705 166.082 142.974V143.35C166.082 143.619 166.026 143.866 165.914 144.091C165.803 144.314 165.639 144.494 165.424 144.631C165.21 144.765 164.948 144.833 164.637 144.833C164.324 144.833 164.059 144.765 163.843 144.631C163.627 144.494 163.464 144.314 163.352 144.091C163.241 143.866 163.185 143.619 163.185 143.35ZM163.996 142.974V143.35C163.996 143.549 164.044 143.73 164.139 143.893C164.234 144.055 164.4 144.137 164.637 144.137C164.871 144.137 165.035 144.055 165.128 143.893C165.221 143.73 165.267 143.549 165.267 143.35V142.974C165.267 142.774 165.222 142.593 165.131 142.431C165.043 142.268 164.878 142.187 164.637 142.187C164.405 142.187 164.24 142.268 164.143 142.431C164.045 142.593 163.996 142.774 163.996 142.974ZM159.6 139.27V138.894C159.6 138.625 159.655 138.378 159.767 138.152C159.88 137.927 160.045 137.748 160.261 137.613C160.479 137.478 160.743 137.411 161.051 137.411C161.367 137.411 161.631 137.478 161.845 137.613C162.058 137.748 162.22 137.927 162.329 138.152C162.438 138.378 162.492 138.625 162.492 138.894V139.27C162.492 139.539 162.437 139.786 162.325 140.011C162.216 140.234 162.054 140.414 161.838 140.551C161.625 140.686 161.362 140.753 161.051 140.753C160.736 140.753 160.47 140.686 160.254 140.551C160.041 140.414 159.878 140.234 159.767 140.011C159.655 139.786 159.6 139.539 159.6 139.27ZM160.414 138.894V139.27C160.414 139.469 160.461 139.651 160.553 139.813C160.649 139.975 160.815 140.057 161.051 140.057C161.283 140.057 161.446 139.975 161.539 139.813C161.634 139.651 161.681 139.469 161.681 139.27V138.894C161.681 138.694 161.636 138.513 161.546 138.351C161.455 138.188 161.29 138.107 161.051 138.107C160.819 138.107 160.654 138.188 160.557 138.351C160.462 138.513 160.414 138.694 160.414 138.894ZM159.93 144.687L164.832 137.557H165.664L160.762 144.687H159.93Z" fill="#377E36"/>
<g clip-path="url(#clip0_76_2773)">
<path d="M65.4395 197.545C65.4395 196.192 66.5367 195.095 67.8902 195.095H186.341V199.996H67.8902C66.5367 199.996 65.4395 198.899 65.4395 197.545Z" fill="#B6B0FB"/>
<path d="M67.0734 188.15V207.756" stroke="#978FED" stroke-width="1.22535"/>
<path d="M70.341 188.15V207.756" stroke="#978FED" stroke-width="1.22535"/>
<path d="M73.609 188.15V207.756" stroke="#978FED" stroke-width="1.22535"/>
<path d="M76.8761 188.15V207.756" stroke="#978FED" stroke-width="1.22535"/>
<path d="M80.1442 188.15V207.756" stroke="#978FED" stroke-width="1.22535"/>
<path d="M83.4113 188.15V207.756" stroke="#978FED" stroke-width="1.22535"/>
<path d="M86.6789 188.15V207.756" stroke="#978FED" stroke-width="1.22535"/>
<path d="M89.9469 188.15V207.756" stroke="#978FED" stroke-width="1.22535"/>
<path d="M93.214 188.15V207.756" stroke="#978FED" stroke-width="1.22535"/>
<path d="M96.4821 188.15V207.756" stroke="#978FED" stroke-width="1.22535"/>
<path d="M99.7497 188.15V207.756" stroke="#978FED" stroke-width="1.22535"/>
<path d="M103.017 188.15V207.756" stroke="#978FED" stroke-width="1.22535"/>
<path d="M106.285 188.15V207.756" stroke="#978FED" stroke-width="1.22535"/>
<path d="M109.552 188.15V207.756" stroke="#978FED" stroke-width="1.22535"/>
<path d="M112.82 188.15V207.756" stroke="#978FED" stroke-width="1.22535"/>
<path d="M116.088 188.15V207.756" stroke="#978FED" stroke-width="1.22535"/>
<path d="M119.355 188.15V207.756" stroke="#978FED" stroke-width="1.22535"/>
<path d="M122.623 188.15V207.756" stroke="#978FED" stroke-width="1.22535"/>
<path d="M125.89 188.15V207.756" stroke="#978FED" stroke-width="1.22535"/>
<path d="M129.158 188.15V207.756" stroke="#978FED" stroke-width="1.22535"/>
<path d="M132.426 188.15V207.756" stroke="#978FED" stroke-width="1.22535"/>
<path d="M135.693 188.15V207.756" stroke="#978FED" stroke-width="1.22535"/>
<path d="M138.961 188.15V207.756" stroke="#978FED" stroke-width="1.22535"/>
<path d="M142.229 188.15V207.756" stroke="#978FED" stroke-width="1.22535"/>
<path d="M145.496 188.15V207.756" stroke="#978FED" stroke-width="1.22535"/>
<path d="M148.764 188.15V207.756" stroke="#978FED" stroke-width="1.22535"/>
<path d="M152.031 188.15V207.756" stroke="#978FED" stroke-width="1.22535"/>
<path d="M155.299 188.15V207.756" stroke="#978FED" stroke-width="1.22535"/>
<path d="M158.567 188.15V207.756" stroke="#978FED" stroke-width="1.22535"/>
<path d="M161.834 188.15V207.756" stroke="#978FED" stroke-width="1.22535"/>
<path d="M165.102 188.15V207.756" stroke="#978FED" stroke-width="1.22535"/>
<path d="M168.369 188.15V207.756" stroke="#978FED" stroke-width="1.22535"/>
<path d="M171.637 188.15V207.756" stroke="#978FED" stroke-width="1.22535"/>
<path d="M174.904 188.15V207.756" stroke="#978FED" stroke-width="1.22535"/>
<path d="M178.172 188.15V207.756" stroke="#978FED" stroke-width="1.22535"/>
<path d="M181.44 188.15V207.756" stroke="#978FED" stroke-width="1.22535"/>
<path d="M184.707 188.15V207.756" stroke="#978FED" stroke-width="1.22535"/>
</g>
<g clip-path="url(#clip1_76_2773)">
<rect width="131.966" height="3.82511" transform="translate(192.876 195.633)" fill="#BBEEED"/>
<line x1="194.63" y1="190.214" x2="194.63" y2="205.514" stroke="#A4DDDC" stroke-width="0.956278"/>
<path d="M196.702 190.214V205.514" stroke="#A4DDDC" stroke-width="0.956278"/>
<path d="M199.252 190.214V205.514" stroke="#A4DDDC" stroke-width="0.956278"/>
<path d="M201.802 190.214V205.514" stroke="#A4DDDC" stroke-width="0.956278"/>
<path d="M204.352 190.214V205.514" stroke="#A4DDDC" stroke-width="0.956278"/>
<path d="M206.902 190.214V205.514" stroke="#A4DDDC" stroke-width="0.956278"/>
<path d="M209.452 190.214V205.514" stroke="#A4DDDC" stroke-width="0.956278"/>
<path d="M212.002 190.214V205.514" stroke="#A4DDDC" stroke-width="0.956278"/>
<path d="M214.552 190.214V205.514" stroke="#A4DDDC" stroke-width="0.956278"/>
<path d="M217.102 190.214V205.514" stroke="#A4DDDC" stroke-width="0.956278"/>
<path d="M219.652 190.214V205.514" stroke="#A4DDDC" stroke-width="0.956278"/>
<path d="M222.202 190.214V205.514" stroke="#A4DDDC" stroke-width="0.956278"/>
<path d="M224.753 190.214V205.514" stroke="#A4DDDC" stroke-width="0.956278"/>
<path d="M227.302 190.214V205.514" stroke="#A4DDDC" stroke-width="0.956278"/>
<path d="M229.853 190.214V205.514" stroke="#A4DDDC" stroke-width="0.956278"/>
<path d="M232.402 190.214V205.514" stroke="#A4DDDC" stroke-width="0.956278"/>
<path d="M234.953 190.214V205.514" stroke="#A4DDDC" stroke-width="0.956278"/>
<path d="M237.503 190.214V205.514" stroke="#A4DDDC" stroke-width="0.956278"/>
<path d="M240.053 190.214V205.514" stroke="#A4DDDC" stroke-width="0.956278"/>
<path d="M242.603 190.214V205.514" stroke="#A4DDDC" stroke-width="0.956278"/>
<path d="M245.153 190.214V205.514" stroke="#A4DDDC" stroke-width="0.956278"/>
<path d="M247.703 190.214V205.514" stroke="#A4DDDC" stroke-width="0.956278"/>
<path d="M250.253 190.214V205.514" stroke="#A4DDDC" stroke-width="0.956278"/>
<path d="M252.803 190.214V205.514" stroke="#A4DDDC" stroke-width="0.956278"/>
<path d="M255.353 190.214V205.514" stroke="#A4DDDC" stroke-width="0.956278"/>
<path d="M257.903 190.214V205.514" stroke="#A4DDDC" stroke-width="0.956278"/>
<path d="M260.453 190.214V205.514" stroke="#A4DDDC" stroke-width="0.956278"/>
<path d="M263.004 190.214V205.514" stroke="#A4DDDC" stroke-width="0.956278"/>
<path d="M265.553 190.214V205.514" stroke="#A4DDDC" stroke-width="0.956278"/>
<path d="M268.104 190.214V205.514" stroke="#A4DDDC" stroke-width="0.956278"/>
<path d="M270.653 190.214V205.514" stroke="#A4DDDC" stroke-width="0.956278"/>
<path d="M273.204 190.214V205.514" stroke="#A4DDDC" stroke-width="0.956278"/>
<path d="M275.754 190.214V205.514" stroke="#A4DDDC" stroke-width="0.956278"/>
<path d="M278.304 190.214V205.514" stroke="#A4DDDC" stroke-width="0.956278"/>
<path d="M280.854 190.214V205.514" stroke="#A4DDDC" stroke-width="0.956278"/>
<path d="M283.404 190.214V205.514" stroke="#A4DDDC" stroke-width="0.956278"/>
<path d="M285.954 190.214V205.514" stroke="#A4DDDC" stroke-width="0.956278"/>
<path d="M288.504 190.214V205.514" stroke="#A4DDDC" stroke-width="0.956278"/>
<path d="M291.054 190.214V205.514" stroke="#A4DDDC" stroke-width="0.956278"/>
<path d="M293.604 190.214V205.514" stroke="#A4DDDC" stroke-width="0.956278"/>
<path d="M296.154 190.214V205.514" stroke="#A4DDDC" stroke-width="0.956278"/>
<path d="M298.704 190.214V205.514" stroke="#A4DDDC" stroke-width="0.956278"/>
<path d="M301.255 190.214V205.514" stroke="#A4DDDC" stroke-width="0.956278"/>
<path d="M303.805 190.214V205.514" stroke="#A4DDDC" stroke-width="0.956278"/>
<path d="M306.355 190.214V205.514" stroke="#A4DDDC" stroke-width="0.956278"/>
<path d="M308.905 190.214V205.514" stroke="#A4DDDC" stroke-width="0.956278"/>
<path d="M311.455 190.214V205.514" stroke="#A4DDDC" stroke-width="0.956278"/>
<path d="M314.005 190.214V205.514" stroke="#A4DDDC" stroke-width="0.956278"/>
<path d="M316.555 190.214V205.514" stroke="#A4DDDC" stroke-width="0.956278"/>
<path d="M319.105 190.214V205.514" stroke="#A4DDDC" stroke-width="0.956278"/>
<path d="M321.655 190.214V205.514" stroke="#A4DDDC" stroke-width="0.956278"/>
<path d="M324.205 190.214V205.514" stroke="#A4DDDC" stroke-width="0.956278"/>
</g>
<g clip-path="url(#clip2_76_2773)">
<rect width="64.5352" height="4.90141" transform="translate(331.377 195.095)" fill="#FBDE9D"/>
<path d="M333.011 188.15V207.756" stroke="#F6CF7D" stroke-width="1.22535"/>
<path d="M336.278 188.15V207.756" stroke="#F6CF7D" stroke-width="1.22535"/>
<path d="M339.547 188.15V207.756" stroke="#F6CF7D" stroke-width="1.22535"/>
<path d="M342.814 188.15V207.756" stroke="#F6CF7D" stroke-width="1.22535"/>
<path d="M346.081 188.15V207.756" stroke="#F6CF7D" stroke-width="1.22535"/>
<path d="M349.349 188.15V207.756" stroke="#F6CF7D" stroke-width="1.22535"/>
<path d="M352.616 188.15V207.756" stroke="#F6CF7D" stroke-width="1.22535"/>
<path d="M355.884 188.15V207.756" stroke="#F6CF7D" stroke-width="1.22535"/>
<path d="M359.152 188.15V207.756" stroke="#F6CF7D" stroke-width="1.22535"/>
<path d="M362.42 188.15V207.756" stroke="#F6CF7D" stroke-width="1.22535"/>
<path d="M365.687 188.15V207.756" stroke="#F6CF7D" stroke-width="1.22535"/>
<path d="M368.955 188.15V207.756" stroke="#F6CF7D" stroke-width="1.22535"/>
<path d="M372.222 188.15V207.756" stroke="#F6CF7D" stroke-width="1.22535"/>
<path d="M375.49 188.15V207.756" stroke="#F6CF7D" stroke-width="1.22535"/>
<path d="M378.757 188.15V207.756" stroke="#F6CF7D" stroke-width="1.22535"/>
<path d="M382.025 188.15V207.756" stroke="#F6CF7D" stroke-width="1.22535"/>
<path d="M385.293 188.15V207.756" stroke="#F6CF7D" stroke-width="1.22535"/>
<path d="M388.56 188.15V207.756" stroke="#F6CF7D" stroke-width="1.22535"/>
<path d="M391.828 188.15V207.756" stroke="#F6CF7D" stroke-width="1.22535"/>
<path d="M395.095 188.15V207.756" stroke="#F6CF7D" stroke-width="1.22535"/>
</g>
<g clip-path="url(#clip3_76_2773)">
<path d="M402.448 195.095H560.11C561.464 195.095 562.561 196.192 562.561 197.545C562.561 198.899 561.464 199.996 560.11 199.996H402.448V195.095Z" fill="#95A1FC"/>
<line x1="403.061" y1="188.15" x2="403.061" y2="207.756" stroke="#697BE9" stroke-width="1.22535"/>
<path d="M405.716 188.15V207.756" stroke="#697BE9" stroke-width="1.22535"/>
<path d="M408.984 188.15V207.756" stroke="#697BE9" stroke-width="1.22535"/>
<path d="M412.251 188.15V207.756" stroke="#697BE9" stroke-width="1.22535"/>
<path d="M415.519 188.15V207.756" stroke="#697BE9" stroke-width="1.22535"/>
<path d="M418.786 188.15V207.756" stroke="#697BE9" stroke-width="1.22535"/>
<path d="M422.054 188.15V207.756" stroke="#697BE9" stroke-width="1.22535"/>
<path d="M425.322 188.15V207.756" stroke="#697BE9" stroke-width="1.22535"/>
<path d="M428.589 188.15V207.756" stroke="#697BE9" stroke-width="1.22535"/>
<path d="M431.857 188.15V207.756" stroke="#697BE9" stroke-width="1.22535"/>
<path d="M435.125 188.15V207.756" stroke="#697BE9" stroke-width="1.22535"/>
<path d="M438.392 188.15V207.756" stroke="#697BE9" stroke-width="1.22535"/>
<path d="M441.66 188.15V207.756" stroke="#697BE9" stroke-width="1.22535"/>
<path d="M444.927 188.15V207.756" stroke="#697BE9" stroke-width="1.22535"/>
<path d="M448.195 188.15V207.756" stroke="#697BE9" stroke-width="1.22535"/>
<path d="M451.463 188.15V207.756" stroke="#697BE9" stroke-width="1.22535"/>
<path d="M454.73 188.15V207.756" stroke="#697BE9" stroke-width="1.22535"/>
<path d="M457.998 188.15V207.756" stroke="#697BE9" stroke-width="1.22535"/>
<path d="M461.265 188.15V207.756" stroke="#697BE9" stroke-width="1.22535"/>
<path d="M464.533 188.15V207.756" stroke="#697BE9" stroke-width="1.22535"/>
<path d="M467.8 188.15V207.756" stroke="#697BE9" stroke-width="1.22535"/>
<path d="M471.068 188.15V207.756" stroke="#697BE9" stroke-width="1.22535"/>
<path d="M474.336 188.15V207.756" stroke="#697BE9" stroke-width="1.22535"/>
<path d="M477.604 188.15V207.756" stroke="#697BE9" stroke-width="1.22535"/>
<path d="M480.871 188.15V207.756" stroke="#697BE9" stroke-width="1.22535"/>
<path d="M484.138 188.15V207.756" stroke="#697BE9" stroke-width="1.22535"/>
<path d="M487.406 188.15V207.756" stroke="#697BE9" stroke-width="1.22535"/>
<path d="M490.673 188.15V207.756" stroke="#697BE9" stroke-width="1.22535"/>
<path d="M493.942 188.15V207.756" stroke="#697BE9" stroke-width="1.22535"/>
<path d="M497.209 188.15V207.756" stroke="#697BE9" stroke-width="1.22535"/>
<path d="M500.477 188.15V207.756" stroke="#697BE9" stroke-width="1.22535"/>
<path d="M503.744 188.15V207.756" stroke="#697BE9" stroke-width="1.22535"/>
<path d="M507.012 188.15V207.756" stroke="#697BE9" stroke-width="1.22535"/>
<path d="M510.279 188.15V207.756" stroke="#697BE9" stroke-width="1.22535"/>
<path d="M513.547 188.15V207.756" stroke="#697BE9" stroke-width="1.22535"/>
<path d="M516.815 188.15V207.756" stroke="#697BE9" stroke-width="1.22535"/>
<path d="M520.082 188.15V207.756" stroke="#697BE9" stroke-width="1.22535"/>
<path d="M523.35 188.15V207.756" stroke="#697BE9" stroke-width="1.22535"/>
<path d="M526.617 188.15V207.756" stroke="#697BE9" stroke-width="1.22535"/>
<path d="M529.885 188.15V207.756" stroke="#697BE9" stroke-width="1.22535"/>
<path d="M533.152 188.15V207.756" stroke="#697BE9" stroke-width="1.22535"/>
<path d="M536.42 188.15V207.756" stroke="#697BE9" stroke-width="1.22535"/>
<path d="M539.688 188.15V207.756" stroke="#697BE9" stroke-width="1.22535"/>
<path d="M542.955 188.15V207.756" stroke="#697BE9" stroke-width="1.22535"/>
<path d="M546.223 188.15V207.756" stroke="#697BE9" stroke-width="1.22535"/>
<path d="M549.49 188.15V207.756" stroke="#697BE9" stroke-width="1.22535"/>
<path d="M552.758 188.15V207.756" stroke="#697BE9" stroke-width="1.22535"/>
<path d="M556.026 188.15V207.756" stroke="#697BE9" stroke-width="1.22535"/>
<path d="M559.293 188.15V207.756" stroke="#697BE9" stroke-width="1.22535"/>
<path d="M562.561 188.15V207.756" stroke="#697BE9" stroke-width="1.22535"/>
</g>
<rect x="48.5071" y="229.814" width="259.775" height="64.1408" rx="6.12676" fill="white"/>
<rect x="48.5071" y="229.814" width="259.775" height="64.1408" rx="6.12676" stroke="#F2F2F2" stroke-width="0.816901"/>
<g clip-path="url(#clip4_76_2773)">
<circle cx="60.3521" cy="246.708" r="2.4507" fill="#978FED"/>
</g>
<path d="M72.0433 251.208H70.435L73.3632 242.89H75.2233L78.1555 251.208H76.5473L74.3257 244.596H74.2608L72.0433 251.208ZM72.0961 247.947H76.4823V249.157H72.0961V247.947ZM83.2288 245.177C83.1909 244.822 83.0312 244.546 82.7496 244.348C82.4707 244.151 82.1079 244.052 81.6612 244.052C81.3471 244.052 81.0777 244.099 80.853 244.194C80.6282 244.289 80.4563 244.418 80.3372 244.58C80.2181 244.742 80.1571 244.928 80.1544 245.136C80.1544 245.31 80.1937 245.46 80.2722 245.587C80.3534 245.714 80.4631 245.823 80.6012 245.912C80.7393 245.999 80.8922 246.072 81.0601 246.131C81.228 246.191 81.3972 246.241 81.5678 246.282L82.3475 246.477C82.6616 246.55 82.9635 246.649 83.2532 246.773C83.5456 246.898 83.8069 247.055 84.037 247.244C84.2699 247.434 84.454 247.662 84.5894 247.931C84.7247 248.199 84.7924 248.513 84.7924 248.873C84.7924 249.36 84.6679 249.789 84.4188 250.16C84.1697 250.528 83.8096 250.817 83.3385 251.025C82.8701 251.231 82.3029 251.334 81.6368 251.334C80.9897 251.334 80.4279 251.234 79.9514 251.033C79.4775 250.833 79.1066 250.541 78.8386 250.156C78.5732 249.772 78.4297 249.303 78.4081 248.751H79.8904C79.9121 249.041 80.0015 249.282 80.1585 249.474C80.3155 249.666 80.5199 249.81 80.7717 249.904C81.0263 249.999 81.3105 250.046 81.6246 250.046C81.9522 250.046 82.2392 249.998 82.4856 249.9C82.7347 249.8 82.9297 249.662 83.0704 249.486C83.2112 249.307 83.283 249.099 83.2857 248.861C83.283 248.644 83.2194 248.465 83.0948 248.324C82.9703 248.181 82.7956 248.062 82.5709 247.967C82.3489 247.87 82.089 247.783 81.7911 247.707L80.8449 247.463C80.1598 247.287 79.6183 247.021 79.2203 246.663C78.825 246.303 78.6274 245.825 78.6274 245.23C78.6274 244.74 78.7601 244.311 79.0254 243.942C79.2934 243.574 79.6576 243.288 80.1179 243.085C80.5782 242.88 81.0994 242.777 81.6815 242.777C82.2717 242.777 82.7889 242.88 83.2329 243.085C83.6796 243.288 84.0303 243.571 84.2848 243.934C84.5393 244.294 84.6706 244.709 84.6787 245.177H83.2288ZM90.2475 245.177C90.2096 244.822 90.0498 244.546 89.7683 244.348C89.4894 244.151 89.1266 244.052 88.6798 244.052C88.3657 244.052 88.0963 244.099 87.8716 244.194C87.6469 244.289 87.475 244.418 87.3558 244.58C87.2367 244.742 87.1758 244.928 87.1731 245.136C87.1731 245.31 87.2123 245.46 87.2909 245.587C87.3721 245.714 87.4817 245.823 87.6198 245.912C87.7579 245.999 87.9109 246.072 88.0788 246.131C88.2466 246.191 88.4158 246.241 88.5864 246.282L89.3662 246.477C89.6803 246.55 89.9821 246.649 90.2719 246.773C90.5643 246.898 90.8255 247.055 91.0557 247.244C91.2885 247.434 91.4726 247.662 91.608 247.931C91.7434 248.199 91.8111 248.513 91.8111 248.873C91.8111 249.36 91.6865 249.789 91.4374 250.16C91.1884 250.528 90.8283 250.817 90.3571 251.025C89.8887 251.231 89.3215 251.334 88.6555 251.334C88.0084 251.334 87.4465 251.234 86.97 251.033C86.4962 250.833 86.1253 250.541 85.8572 250.156C85.5919 249.772 85.4484 249.303 85.4267 248.751H86.9091C86.9308 249.041 87.0201 249.282 87.1771 249.474C87.3342 249.666 87.5386 249.81 87.7904 249.904C88.0449 249.999 88.3292 250.046 88.6433 250.046C88.9709 250.046 89.2579 249.998 89.5043 249.9C89.7534 249.8 89.9483 249.662 90.0891 249.486C90.2299 249.307 90.3016 249.099 90.3043 248.861C90.3016 248.644 90.238 248.465 90.1135 248.324C89.9889 248.181 89.8143 248.062 89.5896 247.967C89.3675 247.87 89.1076 247.783 88.8098 247.707L87.8635 247.463C87.1785 247.287 86.637 247.021 86.239 246.663C85.8437 246.303 85.646 245.825 85.646 245.23C85.646 244.74 85.7787 244.311 86.044 243.942C86.3121 243.574 86.6762 243.288 87.1365 243.085C87.5968 242.88 88.118 242.777 88.7001 242.777C89.2904 242.777 89.8075 242.88 90.2515 243.085C90.6983 243.288 91.0489 243.571 91.3034 243.934C91.5579 244.294 91.6892 244.709 91.6974 245.177H90.2475ZM92.7459 251.208V242.89H98.1556V244.154H94.2527V246.412H97.8753V247.675H94.2527V249.945H98.1881V251.208H92.7459ZM98.9188 244.154V242.89H105.555V244.154H102.984V251.208H101.49V244.154H98.9188ZM108.854 251.208V242.89H111.973C112.612 242.89 113.148 243.001 113.582 243.223C114.017 243.446 114.346 243.757 114.568 244.158C114.793 244.556 114.906 245.02 114.906 245.551C114.906 246.084 114.792 246.547 114.564 246.94C114.34 247.329 114.008 247.631 113.569 247.845C113.131 248.056 112.592 248.162 111.953 248.162H109.731V246.911H111.75C112.124 246.911 112.429 246.86 112.668 246.757C112.906 246.651 113.082 246.498 113.196 246.298C113.312 246.095 113.37 245.846 113.37 245.551C113.37 245.255 113.312 245.004 113.196 244.795C113.079 244.584 112.902 244.424 112.664 244.316C112.425 244.205 112.118 244.149 111.742 244.149H110.361V251.208H108.854ZM113.151 247.439L115.21 251.208H113.529L111.506 247.439H113.151ZM115.884 251.208V242.89H121.294V244.154H117.391V246.412H121.013V247.675H117.391V249.945H121.326V251.208H115.884ZM129.542 245.697H128.023C127.98 245.448 127.9 245.227 127.783 245.035C127.667 244.84 127.522 244.675 127.349 244.539C127.175 244.404 126.978 244.302 126.756 244.235C126.537 244.164 126.3 244.129 126.045 244.129C125.593 244.129 125.192 244.243 124.843 244.47C124.494 244.695 124.22 245.025 124.023 245.461C123.825 245.894 123.726 246.424 123.726 247.049C123.726 247.686 123.825 248.222 124.023 248.658C124.223 249.091 124.496 249.418 124.843 249.64C125.192 249.86 125.592 249.969 126.041 249.969C126.29 249.969 126.523 249.937 126.74 249.872C126.959 249.804 127.155 249.705 127.328 249.575C127.504 249.445 127.652 249.286 127.771 249.096C127.893 248.907 127.977 248.69 128.023 248.446L129.542 248.454C129.485 248.85 129.362 249.221 129.172 249.567C128.985 249.914 128.74 250.22 128.437 250.485C128.134 250.748 127.779 250.953 127.373 251.102C126.967 251.249 126.516 251.322 126.021 251.322C125.29 251.322 124.637 251.153 124.063 250.814C123.489 250.476 123.037 249.987 122.707 249.348C122.376 248.709 122.211 247.943 122.211 247.049C122.211 246.153 122.378 245.387 122.711 244.751C123.044 244.112 123.497 243.623 124.071 243.284C124.645 242.946 125.295 242.777 126.021 242.777C126.484 242.777 126.914 242.842 127.312 242.972C127.71 243.102 128.065 243.293 128.376 243.544C128.688 243.793 128.944 244.099 129.144 244.462C129.347 244.822 129.48 245.234 129.542 245.697ZM130.513 251.208V242.89H135.923V244.154H132.02V246.412H135.643V247.675H132.02V249.945H135.955V251.208H130.513ZM138.558 242.89V251.208H137.052V242.89H138.558ZM140.894 242.89L143.059 249.437H143.144L145.305 242.89H146.962L144.03 251.208H142.17L139.241 242.89H140.894ZM147.649 251.208V242.89H153.059V244.154H149.156V246.412H152.778V247.675H149.156V249.945H153.091V251.208H147.649ZM157.006 251.208H154.187V242.89H157.063C157.889 242.89 158.598 243.057 159.191 243.39C159.787 243.72 160.244 244.195 160.564 244.816C160.883 245.436 161.043 246.177 161.043 247.041C161.043 247.908 160.882 248.652 160.56 249.275C160.24 249.898 159.778 250.375 159.175 250.708C158.574 251.041 157.851 251.208 157.006 251.208ZM155.694 249.904H156.933C157.512 249.904 157.996 249.799 158.383 249.588C158.77 249.374 159.061 249.056 159.256 248.633C159.451 248.208 159.548 247.677 159.548 247.041C159.548 246.405 159.451 245.877 159.256 245.457C159.061 245.035 158.773 244.719 158.391 244.511C158.012 244.3 157.541 244.194 156.978 244.194H155.694V249.904Z" fill="#7A7A7A"/>
<path d="M64.6826 266.302V280.561H62.5243V268.46H62.4407L59.0292 270.688V268.627L62.5869 266.302H64.6826ZM69.6356 278.611L69.5312 279.37C69.4616 279.927 69.3432 280.507 69.1761 281.111C69.0137 281.719 68.8442 282.283 68.6679 282.802C68.4961 283.322 68.3546 283.735 68.2432 284.042H66.7672C66.8275 283.754 66.9111 283.364 67.0178 282.872C67.1246 282.385 67.229 281.839 67.3311 281.236C67.4332 280.632 67.5098 280.017 67.5609 279.391L67.6305 278.611H69.6356ZM75.4172 266.302V280.561H73.2589V268.46H73.1753L69.7638 270.688V268.627L73.3215 266.302H75.4172ZM78.6523 280.561V266.302H80.8036V273.111H80.9777L86.9582 266.302H89.6665L83.9157 272.721L89.6874 280.561H87.0975L82.4885 274.19L80.8036 276.126V280.561H78.6523Z" fill="#242424"/>
<rect x="99.0703" y="264.427" width="36.5352" height="17.2676" rx="3.26761" fill="#E0F0E4"/>
<path d="M105.209 274.863V270.157H106.145V274.863H105.209ZM103.326 272.976V272.043H108.032V272.976H103.326ZM112.014 276.158C111.536 276.158 111.109 276.076 110.733 275.911C110.36 275.746 110.064 275.517 109.846 275.225C109.63 274.93 109.514 274.589 109.498 274.202H110.591C110.605 274.413 110.675 274.596 110.803 274.752C110.933 274.905 111.102 275.023 111.311 275.107C111.52 275.19 111.752 275.232 112.007 275.232C112.288 275.232 112.537 275.183 112.752 275.086C112.971 274.988 113.141 274.853 113.264 274.679C113.387 274.502 113.449 274.299 113.449 274.069C113.449 273.83 113.387 273.62 113.264 273.439C113.143 273.256 112.966 273.112 112.732 273.008C112.499 272.903 112.219 272.851 111.889 272.851H111.287V271.974H111.889C112.154 271.974 112.386 271.926 112.585 271.831C112.787 271.736 112.945 271.604 113.059 271.434C113.172 271.262 113.229 271.062 113.229 270.832C113.229 270.611 113.179 270.42 113.08 270.258C112.982 270.093 112.843 269.964 112.662 269.871C112.483 269.778 112.272 269.732 112.028 269.732C111.796 269.732 111.579 269.775 111.377 269.861C111.178 269.944 111.015 270.065 110.89 270.223C110.765 270.378 110.697 270.565 110.688 270.783H109.647C109.659 270.398 109.773 270.059 109.988 269.767C110.207 269.474 110.494 269.246 110.852 269.081C111.209 268.916 111.606 268.834 112.042 268.834C112.499 268.834 112.894 268.923 113.226 269.102C113.56 269.278 113.818 269.514 113.999 269.808C114.182 270.103 114.272 270.426 114.27 270.776C114.272 271.175 114.161 271.514 113.936 271.793C113.713 272.071 113.416 272.258 113.045 272.353V272.409C113.518 272.481 113.885 272.669 114.145 272.973C114.407 273.277 114.537 273.654 114.535 274.104C114.537 274.496 114.428 274.848 114.207 275.159C113.989 275.47 113.691 275.715 113.313 275.893C112.935 276.07 112.502 276.158 112.014 276.158ZM116.34 276.127C116.149 276.127 115.986 276.059 115.849 275.925C115.712 275.788 115.643 275.623 115.643 275.43C115.643 275.24 115.712 275.078 115.849 274.943C115.986 274.806 116.149 274.738 116.34 274.738C116.53 274.738 116.694 274.806 116.831 274.943C116.967 275.078 117.036 275.24 117.036 275.43C117.036 275.558 117.003 275.675 116.938 275.782C116.876 275.886 116.792 275.97 116.688 276.033C116.583 276.095 116.467 276.127 116.34 276.127ZM118.266 274.668V273.798L121.347 268.931H122.033V270.212H121.598L119.394 273.7V273.756H123.617V274.668H118.266ZM121.647 276.061V274.404L121.654 274.007V268.931H122.674V276.061H121.647ZM128.551 274.724V274.348C128.551 274.079 128.607 273.833 128.719 273.61C128.832 273.385 128.997 273.205 129.213 273.07C129.431 272.933 129.694 272.865 130.003 272.865C130.319 272.865 130.583 272.932 130.797 273.067C131.01 273.201 131.172 273.381 131.281 273.606C131.392 273.831 131.448 274.079 131.448 274.348V274.724C131.448 274.993 131.392 275.24 131.281 275.465C131.169 275.688 131.006 275.868 130.79 276.005C130.576 276.139 130.314 276.207 130.003 276.207C129.69 276.207 129.425 276.139 129.209 276.005C128.994 275.868 128.83 275.688 128.719 275.465C128.607 275.24 128.551 274.993 128.551 274.724ZM129.363 274.348V274.724C129.363 274.923 129.41 275.104 129.505 275.267C129.6 275.429 129.766 275.511 130.003 275.511C130.237 275.511 130.401 275.429 130.494 275.267C130.587 275.104 130.633 274.923 130.633 274.724V274.348C130.633 274.148 130.588 273.967 130.497 273.805C130.409 273.642 130.244 273.561 130.003 273.561C129.771 273.561 129.606 273.642 129.509 273.805C129.411 273.967 129.363 274.148 129.363 274.348ZM124.966 270.644V270.268C124.966 269.999 125.022 269.752 125.133 269.526C125.247 269.301 125.411 269.122 125.627 268.987C125.845 268.852 126.109 268.785 126.418 268.785C126.733 268.785 126.998 268.852 127.211 268.987C127.425 269.122 127.586 269.301 127.695 269.526C127.804 269.752 127.859 269.999 127.859 270.268V270.644C127.859 270.913 127.803 271.16 127.692 271.385C127.583 271.608 127.42 271.788 127.204 271.925C126.991 272.06 126.728 272.127 126.418 272.127C126.102 272.127 125.836 272.06 125.62 271.925C125.407 271.788 125.244 271.608 125.133 271.385C125.022 271.16 124.966 270.913 124.966 270.644ZM125.78 270.268V270.644C125.78 270.844 125.827 271.025 125.92 271.187C126.015 271.349 126.181 271.431 126.418 271.431C126.65 271.431 126.812 271.349 126.905 271.187C127 271.025 127.048 270.844 127.048 270.644V270.268C127.048 270.068 127.002 269.887 126.912 269.725C126.821 269.562 126.657 269.481 126.418 269.481C126.185 269.481 126.021 269.562 125.923 269.725C125.828 269.887 125.78 270.068 125.78 270.268ZM125.297 276.061L130.198 268.931H131.03L126.129 276.061H125.297Z" fill="#377E36"/>
<rect x="319.719" y="229.814" width="259.775" height="64.1408" rx="6.12676" fill="white"/>
<rect x="319.719" y="229.814" width="259.775" height="64.1408" rx="6.12676" stroke="#F2F2F2" stroke-width="0.816901"/>
<g clip-path="url(#clip5_76_2773)">
<circle cx="331.564" cy="246.708" r="2.4507" fill="#A4DDDC"/>
</g>
<path d="M346.707 245.177C346.669 244.822 346.509 244.546 346.228 244.348C345.949 244.151 345.586 244.052 345.139 244.052C344.825 244.052 344.556 244.099 344.331 244.194C344.106 244.289 343.934 244.418 343.815 244.58C343.696 244.742 343.635 244.928 343.632 245.136C343.632 245.31 343.672 245.46 343.75 245.587C343.831 245.714 343.941 245.823 344.079 245.912C344.217 245.999 344.37 246.072 344.538 246.131C344.706 246.191 344.875 246.241 345.046 246.282L345.826 246.477C346.14 246.55 346.441 246.649 346.731 246.773C347.024 246.898 347.285 247.055 347.515 247.244C347.748 247.434 347.932 247.662 348.067 247.931C348.203 248.199 348.27 248.513 348.27 248.873C348.27 249.36 348.146 249.789 347.897 250.16C347.648 250.528 347.288 250.817 346.816 251.025C346.348 251.231 345.781 251.334 345.115 251.334C344.468 251.334 343.906 251.234 343.429 251.033C342.956 250.833 342.585 250.541 342.317 250.156C342.051 249.772 341.908 249.303 341.886 248.751H343.368C343.39 249.041 343.479 249.282 343.636 249.474C343.794 249.666 343.998 249.81 344.25 249.904C344.504 249.999 344.789 250.046 345.103 250.046C345.43 250.046 345.717 249.998 345.964 249.9C346.213 249.8 346.408 249.662 346.548 249.486C346.689 249.307 346.761 249.099 346.764 248.861C346.761 248.644 346.697 248.465 346.573 248.324C346.448 248.181 346.274 248.062 346.049 247.967C345.827 247.87 345.567 247.783 345.269 247.707L344.323 247.463C343.638 247.287 343.096 247.021 342.698 246.663C342.303 246.303 342.105 245.825 342.105 245.23C342.105 244.74 342.238 244.311 342.503 243.942C342.771 243.574 343.136 243.288 343.596 243.085C344.056 242.88 344.577 242.777 345.159 242.777C345.75 242.777 346.267 242.88 346.711 243.085C347.158 243.288 347.508 243.571 347.763 243.934C348.017 244.294 348.149 244.709 348.157 245.177H346.707ZM349.205 251.208V242.89H352.324C352.963 242.89 353.499 243.01 353.933 243.248C354.369 243.486 354.697 243.814 354.919 244.231C355.144 244.645 355.257 245.116 355.257 245.644C355.257 246.177 355.144 246.651 354.919 247.065C354.695 247.48 354.363 247.806 353.924 248.044C353.486 248.28 352.946 248.398 352.304 248.398H350.237V247.159H352.101C352.475 247.159 352.781 247.094 353.019 246.964C353.257 246.834 353.433 246.655 353.547 246.428C353.663 246.2 353.721 245.939 353.721 245.644C353.721 245.349 353.663 245.089 353.547 244.864C353.433 244.64 353.256 244.465 353.015 244.34C352.776 244.213 352.469 244.149 352.093 244.149H350.712V251.208H349.205ZM356.157 251.208V242.89H361.567V244.154H357.664V246.412H361.286V247.675H357.664V249.945H361.599V251.208H356.157ZM369.53 242.89V251.208H368.19L364.271 245.542H364.202V251.208H362.695V242.89H364.044L367.959 248.56H368.032V242.89H369.53ZM373.582 251.208H370.764V242.89H373.639C374.465 242.89 375.174 243.057 375.767 243.39C376.363 243.72 376.821 244.195 377.14 244.816C377.46 245.436 377.619 246.177 377.619 247.041C377.619 247.908 377.458 248.652 377.136 249.275C376.816 249.898 376.355 250.375 375.751 250.708C375.15 251.041 374.427 251.208 373.582 251.208ZM372.271 249.904H373.509C374.089 249.904 374.572 249.799 374.959 249.588C375.346 249.374 375.637 249.056 375.832 248.633C376.027 248.208 376.125 247.677 376.125 247.041C376.125 246.405 376.027 245.877 375.832 245.457C375.637 245.035 375.349 244.719 374.967 244.511C374.588 244.3 374.117 244.194 373.554 244.194H372.271V249.904ZM380.149 242.89V251.208H378.642V242.89H380.149ZM388.208 242.89V251.208H386.867L382.948 245.542H382.879V251.208H381.372V242.89H382.721L386.636 248.56H386.709V242.89H388.208ZM395.013 245.547C394.945 245.327 394.852 245.131 394.733 244.958C394.616 244.782 394.475 244.631 394.31 244.507C394.148 244.382 393.961 244.289 393.75 244.227C393.539 244.162 393.309 244.129 393.059 244.129C392.613 244.129 392.215 244.242 391.865 244.466C391.516 244.691 391.241 245.021 391.041 245.457C390.843 245.89 390.745 246.418 390.745 247.041C390.745 247.669 390.843 248.201 391.041 248.637C391.239 249.073 391.513 249.405 391.865 249.632C392.217 249.857 392.626 249.969 393.092 249.969C393.514 249.969 393.88 249.888 394.188 249.726C394.5 249.563 394.739 249.333 394.907 249.035C395.075 248.735 395.159 248.383 395.159 247.979L395.5 248.032H393.242V246.854H396.617V247.853C396.617 248.565 396.466 249.181 396.162 249.701C395.859 250.221 395.442 250.622 394.911 250.903C394.381 251.182 393.772 251.322 393.084 251.322C392.318 251.322 391.645 251.15 391.065 250.806C390.489 250.459 390.038 249.968 389.713 249.332C389.391 248.693 389.23 247.935 389.23 247.057C389.23 246.386 389.324 245.786 389.514 245.258C389.706 244.73 389.974 244.282 390.318 243.914C390.662 243.543 391.065 243.261 391.528 243.069C391.991 242.874 392.495 242.777 393.039 242.777C393.499 242.777 393.929 242.844 394.327 242.98C394.725 243.112 395.078 243.302 395.387 243.548C395.698 243.795 395.954 244.087 396.154 244.426C396.355 244.764 396.486 245.138 396.548 245.547H395.013Z" fill="#7A7A7A"/>
<path d="M330.484 280.561V279.001L335.309 274.002C335.824 273.459 336.249 272.983 336.583 272.575C336.922 272.162 337.175 271.77 337.342 271.398C337.509 271.027 337.593 270.632 337.593 270.215C337.593 269.741 337.481 269.333 337.259 268.989C337.036 268.641 336.732 268.374 336.347 268.189C335.961 267.998 335.527 267.903 335.045 267.903C334.534 267.903 334.088 268.008 333.708 268.217C333.327 268.425 333.035 268.72 332.831 269.101C332.626 269.481 332.524 269.927 332.524 270.437H330.47C330.47 269.57 330.67 268.811 331.069 268.161C331.468 267.511 332.016 267.007 332.712 266.65C333.408 266.288 334.2 266.107 335.086 266.107C335.982 266.107 336.771 266.286 337.454 266.643C338.14 266.996 338.677 267.479 339.062 268.091C339.447 268.699 339.64 269.386 339.64 270.152C339.64 270.681 339.54 271.199 339.34 271.705C339.145 272.211 338.804 272.774 338.317 273.396C337.83 274.014 337.152 274.763 336.284 275.645L333.45 278.611V278.716H339.869V280.561H330.484ZM344.427 278.611L344.323 279.37C344.253 279.927 344.135 280.507 343.968 281.111C343.805 281.719 343.636 282.283 343.46 282.802C343.288 283.322 343.146 283.735 343.035 284.042H341.559C341.619 283.754 341.703 283.364 341.81 282.872C341.916 282.385 342.021 281.839 342.123 281.236C342.225 280.632 342.302 280.017 342.353 279.391L342.422 278.611H344.427ZM350.97 280.755C350.013 280.755 349.159 280.591 348.407 280.261C347.66 279.932 347.068 279.474 346.632 278.89C346.2 278.3 345.968 277.618 345.936 276.843H348.122C348.15 277.265 348.291 277.632 348.547 277.943C348.807 278.249 349.145 278.486 349.563 278.653C349.981 278.82 350.445 278.904 350.956 278.904C351.517 278.904 352.014 278.806 352.446 278.611C352.882 278.416 353.223 278.145 353.469 277.797C353.715 277.444 353.838 277.038 353.838 276.578C353.838 276.1 353.715 275.68 353.469 275.318C353.228 274.951 352.873 274.664 352.404 274.455C351.94 274.246 351.378 274.141 350.719 274.141H349.514V272.387H350.719C351.248 272.387 351.712 272.292 352.111 272.101C352.515 271.911 352.831 271.647 353.058 271.308C353.286 270.964 353.399 270.563 353.399 270.103C353.399 269.662 353.3 269.279 353.1 268.955C352.905 268.625 352.627 268.367 352.265 268.182C351.907 267.996 351.485 267.903 350.997 267.903C350.533 267.903 350.099 267.989 349.695 268.161C349.296 268.328 348.971 268.569 348.721 268.885C348.47 269.196 348.336 269.57 348.317 270.006H346.235C346.258 269.235 346.486 268.558 346.918 267.973C347.354 267.388 347.929 266.931 348.644 266.601C349.359 266.272 350.153 266.107 351.025 266.107C351.94 266.107 352.729 266.286 353.392 266.643C354.061 266.996 354.576 267.467 354.938 268.056C355.305 268.646 355.486 269.291 355.481 269.992C355.486 270.79 355.263 271.468 354.813 272.025C354.367 272.582 353.773 272.955 353.03 273.146V273.257C353.977 273.401 354.711 273.777 355.23 274.385C355.755 274.993 356.015 275.747 356.01 276.648C356.015 277.432 355.797 278.135 355.356 278.757C354.919 279.379 354.323 279.869 353.566 280.226C352.81 280.579 351.944 280.755 350.97 280.755ZM358.02 280.561V266.302H360.171V273.111H360.345L366.326 266.302H369.034L363.283 272.721L369.055 280.561H366.465L361.856 274.19L360.171 276.126V280.561H358.02Z" fill="#242424"/>
<rect x="378.282" y="264.427" width="39.5352" height="17.2676" rx="3.26761" fill="#E0F0E4"/>
<path d="M384.499 274.863V270.157H385.435V274.863H384.499ZM382.615 272.976V272.043H387.322V272.976H382.615ZM391.623 268.931V276.061H390.544V270.01H390.502L388.796 271.124V270.094L390.575 268.931H391.623ZM396.256 268.931V276.061H395.177V270.01H395.135L393.429 271.124V270.094L395.208 268.931H396.256ZM398.473 276.127C398.282 276.127 398.119 276.059 397.982 275.925C397.845 275.788 397.776 275.623 397.776 275.43C397.776 275.24 397.845 275.078 397.982 274.943C398.119 274.806 398.282 274.738 398.473 274.738C398.663 274.738 398.827 274.806 398.964 274.943C399.1 275.078 399.169 275.24 399.169 275.43C399.169 275.558 399.136 275.675 399.071 275.782C399.009 275.886 398.925 275.97 398.821 276.033C398.716 276.095 398.6 276.127 398.473 276.127ZM400.4 274.668V273.798L403.48 268.931H404.166V270.212H403.731L401.527 273.7V273.756H405.75V274.668H400.4ZM403.78 276.061V274.404L403.787 274.007V268.931H404.807V276.061H403.78ZM410.684 274.724V274.348C410.684 274.079 410.74 273.833 410.852 273.61C410.965 273.385 411.13 273.205 411.346 273.07C411.564 272.933 411.827 272.865 412.136 272.865C412.452 272.865 412.716 272.932 412.93 273.067C413.143 273.201 413.305 273.381 413.414 273.606C413.525 273.831 413.581 274.079 413.581 274.348V274.724C413.581 274.993 413.525 275.24 413.414 275.465C413.302 275.688 413.139 275.868 412.923 276.005C412.709 276.139 412.447 276.207 412.136 276.207C411.823 276.207 411.558 276.139 411.342 276.005C411.127 275.868 410.963 275.688 410.852 275.465C410.74 275.24 410.684 274.993 410.684 274.724ZM411.496 274.348V274.724C411.496 274.923 411.543 275.104 411.638 275.267C411.733 275.429 411.899 275.511 412.136 275.511C412.37 275.511 412.534 275.429 412.627 275.267C412.72 275.104 412.766 274.923 412.766 274.724V274.348C412.766 274.148 412.721 273.967 412.63 273.805C412.542 273.642 412.377 273.561 412.136 273.561C411.904 273.561 411.739 273.642 411.642 273.805C411.544 273.967 411.496 274.148 411.496 274.348ZM407.099 270.644V270.268C407.099 269.999 407.155 269.752 407.266 269.526C407.38 269.301 407.544 269.122 407.76 268.987C407.978 268.852 408.242 268.785 408.551 268.785C408.866 268.785 409.131 268.852 409.344 268.987C409.558 269.122 409.719 269.301 409.828 269.526C409.937 269.752 409.992 269.999 409.992 270.268V270.644C409.992 270.913 409.936 271.16 409.825 271.385C409.716 271.608 409.553 271.788 409.337 271.925C409.124 272.06 408.862 272.127 408.551 272.127C408.235 272.127 407.969 272.06 407.753 271.925C407.54 271.788 407.377 271.608 407.266 271.385C407.155 271.16 407.099 270.913 407.099 270.644ZM407.913 270.268V270.644C407.913 270.844 407.96 271.025 408.053 271.187C408.148 271.349 408.314 271.431 408.551 271.431C408.783 271.431 408.945 271.349 409.038 271.187C409.133 271.025 409.181 270.844 409.181 270.644V270.268C409.181 270.068 409.135 269.887 409.045 269.725C408.954 269.562 408.79 269.481 408.551 269.481C408.318 269.481 408.154 269.562 408.056 269.725C407.961 269.887 407.913 270.068 407.913 270.268ZM407.43 276.061L412.331 268.931H413.163L408.262 276.061H407.43Z" fill="#377E36"/>
<rect x="47.2815" y="324.18" width="259.775" height="64.1408" rx="6.12676" fill="white"/>
<rect x="47.2815" y="324.18" width="259.775" height="64.1408" rx="6.12676" stroke="#F2F2F2" stroke-width="0.816901"/>
<g clip-path="url(#clip6_76_2773)">
<circle cx="59.1265" cy="341.074" r="2.4507" fill="#F6CF7D"/>
</g>
<path d="M71.2563 337.257V345.574H69.7496V337.257H71.2563ZM79.3147 337.257V345.574H77.9744L74.0553 339.909H73.9862V345.574H72.4795V337.257H73.8279L77.7429 342.926H77.816V337.257H79.3147ZM81.6608 337.257L83.8255 343.803H83.9108L86.0714 337.257H87.7284L84.7961 345.574H82.936L80.0078 337.257H81.6608ZM88.4155 345.574V337.257H93.8251V338.52H89.9222V340.778H93.5449V342.041H89.9222V344.311H93.8576V345.574H88.4155ZM99.4741 339.543C99.4362 339.189 99.2764 338.912 98.9949 338.715C98.716 338.517 98.3532 338.418 97.9064 338.418C97.5924 338.418 97.323 338.466 97.0982 338.56C96.8735 338.655 96.7016 338.784 96.5824 338.946C96.4633 339.109 96.4024 339.294 96.3997 339.503C96.3997 339.676 96.4389 339.826 96.5175 339.953C96.5987 340.081 96.7083 340.189 96.8464 340.278C96.9845 340.365 97.1375 340.438 97.3054 340.498C97.4732 340.557 97.6424 340.607 97.813 340.648L98.5928 340.843C98.9069 340.916 99.2088 341.015 99.4985 341.139C99.7909 341.264 100.052 341.421 100.282 341.61C100.515 341.8 100.699 342.029 100.835 342.297C100.97 342.565 101.038 342.879 101.038 343.239C101.038 343.726 100.913 344.155 100.664 344.526C100.415 344.895 100.055 345.183 99.5837 345.391C99.1153 345.597 98.5481 345.7 97.8821 345.7C97.235 345.7 96.6731 345.6 96.1966 345.4C95.7228 345.199 95.3519 344.907 95.0838 344.522C94.8185 344.138 94.675 343.669 94.6533 343.117H96.1357C96.1574 343.407 96.2467 343.648 96.4037 343.84C96.5608 344.032 96.7652 344.176 97.017 344.271C97.2715 344.365 97.5558 344.413 97.8699 344.413C98.1975 344.413 98.4845 344.364 98.7309 344.266C98.98 344.166 99.1749 344.028 99.3157 343.852C99.4565 343.674 99.5282 343.465 99.5309 343.227C99.5282 343.01 99.4646 342.831 99.3401 342.691C99.2155 342.547 99.0409 342.428 98.8162 342.333C98.5941 342.236 98.3342 342.149 98.0364 342.073L97.0901 341.83C96.4051 341.654 95.8636 341.387 95.4656 341.03C95.0703 340.67 94.8726 340.192 94.8726 339.596C94.8726 339.106 95.0053 338.677 95.2706 338.309C95.5387 337.94 95.9029 337.655 96.3631 337.452C96.8234 337.246 97.3446 337.143 97.9267 337.143C98.517 337.143 99.0341 337.246 99.4782 337.452C99.9249 337.655 100.276 337.938 100.53 338.3C100.785 338.661 100.916 339.075 100.924 339.543H99.4741ZM101.607 338.52V337.257H108.243V338.52H105.672V345.574H104.178V338.52H101.607ZM110.621 337.257V345.574H109.114V337.257H110.621ZM118.679 337.257V345.574H117.339L113.42 339.909H113.351V345.574H111.844V337.257H113.192L117.107 342.926H117.18V337.257H118.679ZM125.485 339.913C125.417 339.693 125.323 339.497 125.204 339.324C125.088 339.148 124.947 338.998 124.782 338.873C124.619 338.749 124.433 338.655 124.221 338.593C124.01 338.528 123.78 338.495 123.531 338.495C123.084 338.495 122.686 338.608 122.337 338.832C121.988 339.057 121.713 339.388 121.513 339.823C121.315 340.257 121.216 340.785 121.216 341.407C121.216 342.035 121.315 342.568 121.513 343.003C121.71 343.439 121.985 343.771 122.337 343.998C122.689 344.223 123.098 344.336 123.564 344.336C123.986 344.336 124.351 344.254 124.66 344.092C124.971 343.929 125.211 343.699 125.379 343.401C125.547 343.101 125.631 342.749 125.631 342.345L125.972 342.398H123.714V341.221H127.089V342.22C127.089 342.932 126.937 343.548 126.634 344.067C126.331 344.587 125.914 344.988 125.383 345.27C124.852 345.548 124.243 345.688 123.555 345.688C122.789 345.688 122.116 345.516 121.537 345.172C120.96 344.826 120.509 344.334 120.185 343.698C119.862 343.059 119.701 342.301 119.701 341.424C119.701 340.752 119.796 340.152 119.986 339.624C120.178 339.096 120.446 338.648 120.79 338.28C121.134 337.909 121.537 337.628 122 337.435C122.463 337.24 122.967 337.143 123.511 337.143C123.971 337.143 124.4 337.211 124.798 337.346C125.196 337.479 125.55 337.668 125.858 337.915C126.17 338.161 126.425 338.453 126.626 338.792C126.826 339.13 126.957 339.504 127.02 339.913H125.485Z" fill="#7A7A7A"/>
<path d="M63.457 360.668V374.927H61.2987V362.826H61.2152L57.8037 365.054V362.993L61.3614 360.668H63.457ZM68.41 372.977L68.3056 373.736C68.236 374.293 68.1176 374.873 67.9505 375.477C67.7881 376.085 67.6187 376.649 67.4423 377.169C67.2706 377.688 67.129 378.102 67.0176 378.408H65.5416C65.6019 378.12 65.6855 377.73 65.7922 377.238C65.899 376.751 66.0034 376.205 66.1055 375.602C66.2077 374.999 66.2842 374.384 66.3353 373.757L66.4049 372.977H68.41ZM74.9818 375.122C74.1092 375.122 73.3248 374.955 72.6286 374.62C71.937 374.282 71.3846 373.817 70.9716 373.228C70.5585 372.639 70.338 371.965 70.3101 371.209H72.3988C72.4499 371.822 72.7214 372.325 73.2134 372.72C73.7054 373.114 74.2949 373.312 74.9818 373.312C75.5295 373.312 76.0145 373.186 76.4369 372.936C76.8639 372.68 77.1981 372.33 77.4395 371.884C77.6855 371.439 77.8085 370.93 77.8085 370.36C77.8085 369.779 77.6831 369.262 77.4325 368.807C77.1819 368.352 76.8361 367.995 76.3951 367.735C75.9588 367.475 75.4576 367.343 74.8913 367.338C74.4596 367.338 74.0257 367.412 73.5894 367.561C73.1531 367.709 72.8003 367.904 72.5311 368.146L70.5608 367.853L71.3614 360.668H79.2009V362.513H73.1507L72.6982 366.502H72.7817C73.0602 366.233 73.4292 366.008 73.8887 365.827C74.3529 365.646 74.8495 365.556 75.3786 365.556C76.2466 365.556 77.0194 365.762 77.6971 366.175C78.3794 366.588 78.9155 367.152 79.3053 367.867C79.6999 368.577 79.8948 369.394 79.8902 370.318C79.8948 371.241 79.6859 372.065 79.2636 372.789C78.8458 373.513 78.2656 374.084 77.523 374.502C76.785 374.915 75.9379 375.122 74.9818 375.122ZM81.8112 374.927V360.668H83.9625V367.477H84.1365L90.1171 360.668H92.8254L87.0746 367.087L92.8463 374.927H90.2563L85.6474 368.556L83.9625 370.492V374.927H81.8112Z" fill="#242424"/>
<rect x="101.845" y="358.793" width="33.5352" height="17.2676" rx="3.26761" fill="#FEECEB"/>
<path d="M109.429 366.41V367.315H106.268V366.41H109.429ZM113.507 363.297V370.427H112.428V364.377H112.386L110.68 365.491V364.46L112.459 363.297H113.507ZM115.723 370.493C115.533 370.493 115.37 370.426 115.233 370.291C115.096 370.154 115.027 369.989 115.027 369.797C115.027 369.606 115.096 369.444 115.233 369.309C115.37 369.172 115.533 369.104 115.723 369.104C115.914 369.104 116.077 369.172 116.214 369.309C116.351 369.444 116.42 369.606 116.42 369.797C116.42 369.924 116.387 370.042 116.322 370.148C116.26 370.253 116.176 370.336 116.072 370.399C115.967 370.462 115.851 370.493 115.723 370.493ZM117.65 369.034V368.164L120.731 363.297H121.417V364.578H120.982L118.778 368.067V368.122H123.001V369.034H117.65ZM121.03 370.427V368.77L121.037 368.373V363.297H122.057V370.427H121.03ZM127.935 369.09V368.714C127.935 368.445 127.991 368.199 128.102 367.976C128.216 367.751 128.381 367.571 128.597 367.436C128.815 367.3 129.078 367.231 129.387 367.231C129.702 367.231 129.967 367.298 130.18 367.433C130.394 367.568 130.555 367.747 130.664 367.973C130.776 368.198 130.831 368.445 130.831 368.714V369.09C130.831 369.359 130.776 369.606 130.664 369.831C130.553 370.054 130.389 370.234 130.174 370.371C129.96 370.506 129.698 370.573 129.387 370.573C129.073 370.573 128.809 370.506 128.593 370.371C128.377 370.234 128.214 370.054 128.102 369.831C127.991 369.606 127.935 369.359 127.935 369.09ZM128.746 368.714V369.09C128.746 369.29 128.794 369.471 128.889 369.633C128.984 369.796 129.15 369.877 129.387 369.877C129.621 369.877 129.785 369.796 129.878 369.633C129.97 369.471 130.017 369.29 130.017 369.09V368.714C130.017 368.514 129.972 368.333 129.881 368.171C129.793 368.009 129.628 367.927 129.387 367.927C129.155 367.927 128.99 368.009 128.892 368.171C128.795 368.333 128.746 368.514 128.746 368.714ZM124.35 365.01V364.634C124.35 364.365 124.405 364.118 124.517 363.893C124.63 363.668 124.795 363.488 125.011 363.353C125.229 363.219 125.493 363.151 125.801 363.151C126.117 363.151 126.381 363.219 126.595 363.353C126.808 363.488 126.97 363.668 127.079 363.893C127.188 364.118 127.242 364.365 127.242 364.634V365.01C127.242 365.279 127.187 365.527 127.075 365.752C126.966 365.974 126.804 366.154 126.588 366.291C126.374 366.426 126.112 366.493 125.801 366.493C125.486 366.493 125.22 366.426 125.004 366.291C124.791 366.154 124.628 365.974 124.517 365.752C124.405 365.527 124.35 365.279 124.35 365.01ZM125.164 364.634V365.01C125.164 365.21 125.211 365.391 125.303 365.553C125.399 365.716 125.565 365.797 125.801 365.797C126.033 365.797 126.196 365.716 126.289 365.553C126.384 365.391 126.431 365.21 126.431 365.01V364.634C126.431 364.435 126.386 364.254 126.296 364.091C126.205 363.929 126.04 363.847 125.801 363.847C125.569 363.847 125.404 363.929 125.307 364.091C125.212 364.254 125.164 364.435 125.164 364.634ZM124.68 370.427L129.582 363.297H130.414L125.512 370.427H124.68Z" fill="#B12F30"/>
<rect x="320.944" y="324.18" width="259.775" height="64.1408" rx="6.12676" fill="white"/>
<rect x="320.944" y="324.18" width="259.775" height="64.1408" rx="6.12676" stroke="#F2F2F2" stroke-width="0.816901"/>
<g clip-path="url(#clip7_76_2773)">
<circle cx="332.789" cy="341.074" r="2.4507" fill="#697BE9"/>
</g>
<path d="M344.48 345.574H342.872L345.8 337.257H347.66L350.592 345.574H348.984L346.762 338.962H346.697L344.48 345.574ZM344.533 342.313H348.919V343.523H344.533V342.313ZM351.279 345.574V337.257H352.786V344.311H356.449V345.574H351.279ZM357.348 345.574V337.257H358.855V344.311H362.519V345.574H357.348ZM370.526 341.415C370.526 342.312 370.358 343.079 370.022 343.718C369.689 344.354 369.235 344.842 368.658 345.18C368.084 345.519 367.433 345.688 366.704 345.688C365.976 345.688 365.324 345.519 364.747 345.18C364.173 344.839 363.718 344.35 363.382 343.714C363.049 343.075 362.883 342.309 362.883 341.415C362.883 340.519 363.049 339.753 363.382 339.117C363.718 338.478 364.173 337.989 364.747 337.651C365.324 337.312 365.976 337.143 366.704 337.143C367.433 337.143 368.084 337.312 368.658 337.651C369.235 337.989 369.689 338.478 370.022 339.117C370.358 339.753 370.526 340.519 370.526 341.415ZM369.011 341.415C369.011 340.785 368.912 340.253 368.715 339.819C368.52 339.383 368.249 339.054 367.902 338.832C367.556 338.608 367.157 338.495 366.704 338.495C366.252 338.495 365.853 338.608 365.506 338.832C365.16 339.054 364.888 339.383 364.69 339.819C364.495 340.253 364.398 340.785 364.398 341.415C364.398 342.046 364.495 342.58 364.69 343.016C364.888 343.449 365.16 343.778 365.506 344.002C365.853 344.225 366.252 344.336 366.704 344.336C367.157 344.336 367.556 344.225 367.902 344.002C368.249 343.778 368.52 343.449 368.715 343.016C368.912 342.58 369.011 342.046 369.011 341.415ZM378.662 340.063H377.143C377.099 339.814 377.019 339.593 376.903 339.401C376.787 339.206 376.642 339.041 376.468 338.906C376.295 338.77 376.098 338.669 375.876 338.601C375.656 338.531 375.419 338.495 375.165 338.495C374.713 338.495 374.312 338.609 373.963 338.837C373.613 339.061 373.34 339.392 373.142 339.827C372.945 340.261 372.846 340.79 372.846 341.415C372.846 342.052 372.945 342.588 373.142 343.024C373.343 343.457 373.616 343.785 373.963 344.007C374.312 344.226 374.711 344.336 375.161 344.336C375.41 344.336 375.643 344.303 375.859 344.238C376.079 344.17 376.275 344.072 376.448 343.942C376.624 343.812 376.772 343.652 376.891 343.462C377.013 343.273 377.097 343.056 377.143 342.813L378.662 342.821C378.605 343.216 378.482 343.587 378.292 343.933C378.105 344.28 377.86 344.586 377.557 344.851C377.254 345.114 376.899 345.32 376.493 345.469C376.087 345.615 375.636 345.688 375.14 345.688C374.409 345.688 373.757 345.519 373.183 345.18C372.609 344.842 372.157 344.353 371.826 343.714C371.496 343.075 371.331 342.309 371.331 341.415C371.331 340.519 371.497 339.753 371.83 339.117C372.164 338.478 372.617 337.989 373.191 337.651C373.765 337.312 374.415 337.143 375.14 337.143C375.603 337.143 376.034 337.208 376.432 337.338C376.83 337.468 377.185 337.659 377.496 337.911C377.807 338.16 378.063 338.466 378.264 338.828C378.467 339.189 378.599 339.6 378.662 340.063ZM380.601 345.574H378.992L381.92 337.257H383.781L386.713 345.574H385.105L382.883 338.962H382.818L380.601 345.574ZM380.653 342.313H385.04V343.523H380.653V342.313ZM386.029 338.52V337.257H392.665V338.52H390.095V345.574H388.6V338.52H386.029ZM395.043 337.257V345.574H393.536V337.257H395.043ZM403.698 341.415C403.698 342.312 403.53 343.079 403.195 343.718C402.862 344.354 402.407 344.842 401.83 345.18C401.256 345.519 400.605 345.688 399.877 345.688C399.148 345.688 398.496 345.519 397.919 345.18C397.345 344.839 396.89 344.35 396.555 343.714C396.221 343.075 396.055 342.309 396.055 341.415C396.055 340.519 396.221 339.753 396.555 339.117C396.89 338.478 397.345 337.989 397.919 337.651C398.496 337.312 399.148 337.143 399.877 337.143C400.605 337.143 401.256 337.312 401.83 337.651C402.407 337.989 402.862 338.478 403.195 339.117C403.53 339.753 403.698 340.519 403.698 341.415ZM402.183 341.415C402.183 340.785 402.085 340.253 401.887 339.819C401.692 339.383 401.421 339.054 401.075 338.832C400.728 338.608 400.329 338.495 399.877 338.495C399.425 338.495 399.025 338.608 398.679 338.832C398.332 339.054 398.06 339.383 397.862 339.819C397.667 340.253 397.57 340.785 397.57 341.415C397.57 342.046 397.667 342.58 397.862 343.016C398.06 343.449 398.332 343.778 398.679 344.002C399.025 344.225 399.425 344.336 399.877 344.336C400.329 344.336 400.728 344.225 401.075 344.002C401.421 343.778 401.692 343.449 401.887 343.016C402.085 342.58 402.183 342.046 402.183 341.415ZM411.55 337.257V345.574H410.209L406.29 339.909H406.221V345.574H404.714V337.257H406.063L409.978 342.926H410.051V337.257H411.55Z" fill="#7A7A7A"/>
<path d="M337.119 360.668V374.927H334.961V362.826H334.877L331.466 365.054V362.993L335.023 360.668H337.119ZM342.072 372.977L341.968 373.736C341.898 374.293 341.78 374.873 341.613 375.477C341.45 376.085 341.281 376.649 341.104 377.169C340.933 377.688 340.791 378.102 340.68 378.408H339.204C339.264 378.12 339.348 377.73 339.454 377.238C339.561 376.751 339.666 376.205 339.768 375.602C339.87 374.999 339.946 374.384 339.997 373.757L340.067 372.977H342.072ZM348.628 375.122C347.992 375.112 347.366 374.996 346.748 374.774C346.136 374.551 345.579 374.179 345.078 373.66C344.576 373.14 344.175 372.441 343.873 371.564C343.576 370.687 343.427 369.591 343.427 368.278C343.427 367.034 343.55 365.929 343.796 364.964C344.047 363.998 344.407 363.184 344.876 362.52C345.344 361.852 345.911 361.343 346.574 360.995C347.238 360.647 347.983 360.473 348.809 360.473C349.659 360.473 350.413 360.64 351.072 360.974C351.731 361.309 352.265 361.77 352.673 362.36C353.086 362.949 353.349 363.62 353.46 364.372H351.337C351.193 363.778 350.907 363.293 350.48 362.917C350.053 362.541 349.496 362.353 348.809 362.353C347.765 362.353 346.95 362.808 346.366 363.718C345.785 364.627 345.493 365.892 345.488 367.512H345.593C345.839 367.108 346.14 366.765 346.498 366.482C346.86 366.194 347.264 365.973 347.709 365.82C348.159 365.662 348.633 365.583 349.13 365.583C349.956 365.583 350.703 365.785 351.371 366.189C352.044 366.588 352.58 367.141 352.98 367.846C353.379 368.552 353.578 369.359 353.578 370.269C353.578 371.179 353.372 372.003 352.959 372.741C352.55 373.479 351.975 374.063 351.232 374.495C350.489 374.922 349.622 375.131 348.628 375.122ZM348.621 373.312C349.169 373.312 349.659 373.177 350.09 372.908C350.522 372.639 350.863 372.276 351.114 371.822C351.364 371.367 351.49 370.858 351.49 370.297C351.49 369.749 351.367 369.25 351.121 368.8C350.879 368.35 350.545 367.992 350.118 367.728C349.696 367.463 349.213 367.331 348.67 367.331C348.257 367.331 347.874 367.41 347.521 367.568C347.173 367.725 346.867 367.944 346.602 368.222C346.338 368.501 346.129 368.821 345.976 369.183C345.827 369.54 345.753 369.919 345.753 370.318C345.753 370.852 345.876 371.346 346.122 371.801C346.372 372.256 346.714 372.622 347.145 372.901C347.582 373.175 348.074 373.312 348.621 373.312ZM355.492 374.927V360.668H357.644V367.477H357.818L363.798 360.668H366.507L360.756 367.087L366.528 374.927H363.938L359.329 368.556L357.644 370.492V374.927H355.492Z" fill="#242424"/>
<rect x="375.507" y="358.793" width="34.5352" height="17.2676" rx="3.26761" fill="#E0F0E4"/>
<path d="M381.718 369.229V364.523H382.654V369.229H381.718ZM379.834 367.342V366.41H384.541V367.342H379.834ZM386.138 370.427L389.25 364.272V364.22H385.65V363.297H390.364V364.251L387.262 370.427H386.138ZM391.049 370.493C390.858 370.493 390.695 370.426 390.558 370.291C390.421 370.154 390.352 369.989 390.352 369.797C390.352 369.606 390.421 369.444 390.558 369.309C390.695 369.172 390.858 369.104 391.049 369.104C391.239 369.104 391.403 369.172 391.539 369.309C391.676 369.444 391.745 369.606 391.745 369.797C391.745 369.924 391.712 370.042 391.647 370.148C391.585 370.253 391.501 370.336 391.397 370.399C391.292 370.462 391.176 370.493 391.049 370.493ZM395.349 370.545C394.799 370.543 394.329 370.398 393.939 370.11C393.549 369.822 393.251 369.403 393.044 368.853C392.838 368.303 392.734 367.641 392.734 366.866C392.734 366.093 392.838 365.433 393.044 364.885C393.253 364.337 393.552 363.919 393.942 363.632C394.335 363.344 394.803 363.2 395.349 363.2C395.894 363.2 396.362 363.345 396.752 363.635C397.141 363.923 397.44 364.341 397.646 364.888C397.855 365.434 397.96 366.093 397.96 366.866C397.96 367.643 397.856 368.307 397.65 368.857C397.443 369.404 397.145 369.823 396.755 370.113C396.365 370.401 395.896 370.545 395.349 370.545ZM395.349 369.616C395.831 369.616 396.209 369.38 396.48 368.909C396.754 368.438 396.891 367.757 396.891 366.866C396.891 366.274 396.828 365.774 396.703 365.365C396.58 364.954 396.402 364.643 396.17 364.432C395.94 364.219 395.667 364.112 395.349 364.112C394.868 364.112 394.491 364.349 394.217 364.822C393.943 365.296 393.805 365.977 393.803 366.866C393.803 367.46 393.865 367.962 393.988 368.373C394.113 368.781 394.29 369.091 394.52 369.302C394.75 369.511 395.026 369.616 395.349 369.616ZM402.916 369.09V368.714C402.916 368.445 402.971 368.199 403.083 367.976C403.197 367.751 403.361 367.571 403.577 367.436C403.795 367.3 404.059 367.231 404.367 367.231C404.683 367.231 404.948 367.298 405.161 367.433C405.375 367.568 405.536 367.747 405.645 367.973C405.756 368.198 405.812 368.445 405.812 368.714V369.09C405.812 369.359 405.756 369.606 405.645 369.831C405.534 370.054 405.37 370.234 405.154 370.371C404.941 370.506 404.678 370.573 404.367 370.573C404.054 370.573 403.79 370.506 403.574 370.371C403.358 370.234 403.194 370.054 403.083 369.831C402.971 369.606 402.916 369.359 402.916 369.09ZM403.727 368.714V369.09C403.727 369.29 403.774 369.471 403.87 369.633C403.965 369.796 404.131 369.877 404.367 369.877C404.602 369.877 404.765 369.796 404.858 369.633C404.951 369.471 404.997 369.29 404.997 369.09V368.714C404.997 368.514 404.952 368.333 404.862 368.171C404.774 368.009 404.609 367.927 404.367 367.927C404.135 367.927 403.971 368.009 403.873 368.171C403.776 368.333 403.727 368.514 403.727 368.714ZM399.33 365.01V364.634C399.33 364.365 399.386 364.118 399.497 363.893C399.611 363.668 399.776 363.488 399.992 363.353C400.21 363.219 400.473 363.151 400.782 363.151C401.097 363.151 401.362 363.219 401.576 363.353C401.789 363.488 401.95 363.668 402.059 363.893C402.168 364.118 402.223 364.365 402.223 364.634V365.01C402.223 365.279 402.167 365.527 402.056 365.752C401.947 365.974 401.784 366.154 401.569 366.291C401.355 366.426 401.093 366.493 400.782 366.493C400.466 366.493 400.2 366.426 399.985 366.291C399.771 366.154 399.609 365.974 399.497 365.752C399.386 365.527 399.33 365.279 399.33 365.01ZM400.145 364.634V365.01C400.145 365.21 400.191 365.391 400.284 365.553C400.379 365.716 400.545 365.797 400.782 365.797C401.014 365.797 401.176 365.716 401.269 365.553C401.364 365.391 401.412 365.21 401.412 365.01V364.634C401.412 364.435 401.367 364.254 401.276 364.091C401.186 363.929 401.021 363.847 400.782 363.847C400.55 363.847 400.385 363.929 400.288 364.091C400.192 364.254 400.145 364.435 400.145 364.634ZM399.661 370.427L404.562 363.297H405.394L400.493 370.427H399.661Z" fill="#377E36"/>
<defs>
<filter id="filter0_d_76_2773" x="0" y="0.405273" width="628" height="445" filterUnits="userSpaceOnUse" color-interpolation-filters="sRGB">
<feFlood flood-opacity="0" result="BackgroundImageFix"/>
<feColorMatrix in="SourceAlpha" type="matrix" values="0 0 0 0 0 0 0 0 0 0 0 0 0 0 0 0 0 0 127 0" result="hardAlpha"/>
<feOffset dy="4"/>
<feGaussianBlur stdDeviation="12"/>
<feComposite in2="hardAlpha" operator="out"/>
<feColorMatrix type="matrix" values="0 0 0 0 0 0 0 0 0 0 0 0 0 0 0 0 0 0 0.09 0"/>
<feBlend mode="normal" in2="BackgroundImageFix" result="effect1_dropShadow_76_2773"/>
<feBlend mode="normal" in="SourceGraphic" in2="effect1_dropShadow_76_2773" result="shape"/>
</filter>
<filter id="filter1_d_76_2773" x="476.268" y="76.5459" width="107.38" height="37.8731" filterUnits="userSpaceOnUse" color-interpolation-filters="sRGB">
<feFlood flood-opacity="0" result="BackgroundImageFix"/>
<feColorMatrix in="SourceAlpha" type="matrix" values="0 0 0 0 0 0 0 0 0 0 0 0 0 0 0 0 0 0 127 0" result="hardAlpha"/>
<feOffset dy="1.6338"/>
<feGaussianBlur stdDeviation="1.6338"/>
<feComposite in2="hardAlpha" operator="out"/>
<feColorMatrix type="matrix" values="0 0 0 0 0 0 0 0 0 0 0 0 0 0 0 0 0 0 0.04 0"/>
<feBlend mode="normal" in2="BackgroundImageFix" result="effect1_dropShadow_76_2773"/>
<feBlend mode="normal" in="SourceGraphic" in2="effect1_dropShadow_76_2773" result="shape"/>
</filter>
<clipPath id="clip0_76_2773">
<path d="M65.4395 197.545C65.4395 196.192 66.5367 195.095 67.8902 195.095H186.341V199.996H67.8902C66.5367 199.996 65.4395 198.899 65.4395 197.545Z" fill="white"/>
</clipPath>
<clipPath id="clip1_76_2773">
<rect width="131.966" height="3.82511" fill="white" transform="translate(192.876 195.633)"/>
</clipPath>
<clipPath id="clip2_76_2773">
<rect width="64.5352" height="4.90141" fill="white" transform="translate(331.377 195.095)"/>
</clipPath>
<clipPath id="clip3_76_2773">
<path d="M402.448 195.095H560.11C561.464 195.095 562.561 196.192 562.561 197.545C562.561 198.899 561.464 199.996 560.11 199.996H402.448V195.095Z" fill="white"/>
</clipPath>
<clipPath id="clip4_76_2773">
<rect width="4.90141" height="4.90141" fill="white" transform="translate(57.9014 244.257)"/>
</clipPath>
<clipPath id="clip5_76_2773">
<rect width="4.90141" height="4.90141" fill="white" transform="translate(329.113 244.257)"/>
</clipPath>
<clipPath id="clip6_76_2773">
<rect width="4.90141" height="4.90141" fill="white" transform="translate(56.6758 338.623)"/>
</clipPath>
<clipPath id="clip7_76_2773">
<rect width="4.90141" height="4.90141" fill="white" transform="translate(330.338 338.623)"/>
</clipPath>
</defs>
</svg>
