<svg width="65" height="65" viewBox="0 0 65 65" fill="none" xmlns="http://www.w3.org/2000/svg">
<rect x="0.620117" y="0.44043" width="64" height="64" rx="6" fill="white"/>
<path d="M32.6198 21.5752C26.6297 21.5752 21.7549 26.45 21.7549 32.4402C21.7549 38.4303 26.6297 43.3051 32.6198 43.3051C38.61 43.3051 43.4848 38.4303 43.4848 32.4402C43.4848 26.45 38.61 21.5752 32.6198 21.5752ZM32.6198 24.4725C34.2206 24.4725 35.5171 25.769 35.5171 27.3697C35.5171 28.9704 34.2206 30.267 32.6198 30.267C31.0191 30.267 29.7226 28.9704 29.7226 27.3697C29.7226 25.769 31.0191 24.4725 32.6198 24.4725ZM38.8418 37.4234C37.3135 39.3212 35.0464 40.4076 32.6198 40.4076C30.1933 40.4076 27.9263 39.3211 26.3979 37.4234C26.2603 37.2496 26.2096 37.0251 26.2531 36.8078C26.9267 33.8091 29.5415 31.716 32.6196 31.716C34.358 31.716 35.9949 32.3896 37.2335 33.621C38.1027 34.4974 38.7111 35.5984 38.9863 36.808C39.0298 37.0253 38.9866 37.2496 38.8418 37.4234Z" fill="#FFC67F"/>
<path d="M51.09 28.855C49.6413 21.2934 43.7671 15.4191 36.2055 13.9631C36.0171 12.1451 34.4888 10.7109 32.6201 10.7109C30.7513 10.7109 29.2231 12.1451 29.0347 13.9631C21.4731 15.419 15.5988 21.2929 14.1428 28.855C12.3247 29.0433 10.8906 30.5716 10.8906 32.4404C10.8906 34.3092 12.3248 35.8374 14.1428 36.0258C15.5987 43.5874 21.4726 49.4616 29.0347 50.9177C29.223 52.7357 30.7513 54.1699 32.6201 54.1699C34.4888 54.1699 36.0171 52.7357 36.2055 50.9177C43.7671 49.4618 49.6413 43.5878 51.09 36.0258C52.9152 35.8374 54.3494 34.3092 54.3494 32.4404C54.3494 30.5716 52.9152 29.0434 51.09 28.855ZM32.6198 12.1594C33.8149 12.1594 34.7928 13.1372 34.7928 14.3323C34.7928 15.5274 33.8149 16.5053 32.6198 16.5053C31.4247 16.5053 30.4469 15.5274 30.4469 14.3323C30.4469 13.1372 31.4247 12.1594 32.6198 12.1594ZM12.339 32.4402C12.339 31.2451 13.3168 30.2673 14.5119 30.2673C15.707 30.2673 16.6849 31.2451 16.6849 32.4402C16.6849 33.6353 15.707 34.6132 14.5119 34.6132C13.3168 34.6132 12.339 33.6353 12.339 32.4402ZM32.6198 52.721C31.4247 52.721 30.4469 51.7432 30.4469 50.5481C30.4469 49.353 31.4247 48.3751 32.6198 48.3751C33.8149 48.3751 34.7928 49.353 34.7928 50.5481C34.7928 51.7432 33.8149 52.721 32.6198 52.721ZM36.0603 49.4689C35.5968 47.9985 34.235 46.9265 32.6198 46.9265C31.0046 46.9265 29.6429 47.9985 29.1793 49.4689C22.3056 48.0999 16.9603 42.7546 15.5914 35.881C17.0617 35.4174 18.1337 34.0557 18.1337 32.4404C18.1337 30.8252 17.0617 29.4635 15.5914 28.9999C16.9603 22.1262 22.3056 16.7809 29.1793 15.412C29.6429 16.8824 31.0046 17.9544 32.6198 17.9544C34.235 17.9544 35.5968 16.8824 36.0603 15.412C42.934 16.781 48.2793 22.1262 49.6482 28.9999C48.1779 29.4635 47.1059 30.8252 47.1059 32.4404C47.1059 34.0557 48.1779 35.4174 49.6482 35.881C48.2793 42.7546 42.934 48.1 36.0603 49.4689ZM50.7279 34.6131C49.5328 34.6131 48.5549 33.6353 48.5549 32.4402C48.5549 31.2451 49.5328 30.2672 50.7279 30.2672C51.923 30.2672 52.9008 31.2451 52.9008 32.4402C52.9008 33.6353 51.923 34.6131 50.7279 34.6131Z" fill="#FFC67F"/>
</svg>
