<svg width="19" height="20" viewBox="0 0 19 20" fill="none" xmlns="http://www.w3.org/2000/svg">
<path d="M15.8334 0.965698H6.65007C4.90469 0.965698 3.4834 2.38699 3.4834 4.13236V5.39903C3.4834 5.74787 3.7679 6.03236 4.11673 6.03236C4.46556 6.03236 4.75007 5.74786 4.75007 5.39903V4.13236C4.75007 3.08464 5.60234 2.23236 6.65007 2.23236H15.8334C16.8811 2.23236 17.7334 3.08464 17.7334 4.13236V16.799C17.7334 17.8468 16.8811 18.699 15.8334 18.699H6.65007C5.60234 18.699 4.75007 17.8468 4.75007 16.799V15.5324C4.75007 15.1835 4.46556 14.899 4.11673 14.899C3.7679 14.899 3.4834 15.1835 3.4834 15.5324V16.799C3.4834 18.5444 4.90469 19.9657 6.65007 19.9657H15.8334C17.5788 19.9657 19.0001 18.5444 19.0001 16.799V4.13236C19.0001 2.38699 17.5788 0.965698 15.8334 0.965698Z" fill="black"/>
<path d="M6.03994e-07 10.4657C6.03994e-07 10.8145 0.284507 11.099 0.633334 11.099H12.4045L9.73506 13.7684C9.47901 14.0245 9.44313 14.4487 9.65961 14.69C9.77712 14.8199 9.93793 14.8953 10.116 14.9027H10.1198C10.2942 14.9027 10.4612 14.8359 10.5787 14.716L13.2988 11.9996C13.707 11.5914 13.9321 11.0459 13.9321 10.4707C13.9321 9.89424 13.707 9.34995 13.2988 8.94177L10.6294 6.27236C10.3696 6.0126 9.94905 5.98044 9.70781 6.19691C9.57793 6.31442 9.50247 6.47523 9.49505 6.65335C9.49134 6.82777 9.55566 6.99228 9.68183 7.11847L12.4019 9.83858L0.633333 9.8361C0.284493 9.8361 0 10.1206 0 10.4694L6.03994e-07 10.4657Z" fill="black"/>
</svg>
