<svg width="80" height="81" viewBox="0 0 80 81" fill="none" xmlns="http://www.w3.org/2000/svg">
<path d="M41.5087 64.1435H59.0258C61.4131 64.1435 63.3528 62.2037 63.3528 59.8164L63.3558 42.5262C63.3558 40.1389 61.4161 38.1992 59.0288 38.1992H41.5087C39.1214 38.1992 37.1816 40.1389 37.1816 42.5262V59.8164C37.1816 62.2037 39.1244 64.1435 41.5087 64.1435ZM38.6738 42.5263C38.6738 40.9626 39.9451 39.6914 41.5087 39.6914H59.0258C60.5895 39.6914 61.8607 40.9627 61.8607 42.5263V59.8165C61.8607 61.3802 60.5895 62.6514 59.0258 62.6514H41.5087C39.945 62.6514 38.6738 61.3801 38.6738 59.8165V42.5263Z" fill="#EB9646"/>
<path d="M28.1585 52.887H24.7685C24.3567 52.887 24.0225 53.2212 24.0225 53.633C24.0225 54.0448 24.3567 54.379 24.7685 54.379H28.1585C28.5703 54.379 28.9045 54.0448 28.9045 53.633C28.9045 53.2212 28.5703 52.887 28.1585 52.887Z" fill="#EB9646"/>
<path d="M69.4477 67.5753H68.6867V31.6167C68.6867 31.56 68.6658 31.5093 68.6539 31.4556C69.6983 30.2798 70.3369 28.737 70.3369 27.0421V19.2507C70.3369 19.1582 70.316 19.0687 70.2832 18.9821C70.2713 18.9523 70.2534 18.9254 70.2384 18.8986C70.2176 18.8598 70.2026 18.821 70.1788 18.7881L62.3904 8.94023C62.2502 8.76118 62.0323 8.65674 61.8055 8.65674H18.1923C17.9655 8.65674 17.7477 8.76118 17.6074 8.94023L9.8191 18.7881C9.79224 18.821 9.77732 18.8628 9.75942 18.8986C9.7445 18.9254 9.72659 18.9523 9.71465 18.9821C9.68183 19.0687 9.66094 19.1582 9.66094 19.2507V27.0421C9.66094 28.7371 10.3025 30.2799 11.3469 31.4556C11.335 31.5093 11.3141 31.56 11.3141 31.6167V67.5753H10.5502C9.21032 67.5753 8.12109 68.6645 8.12109 70.0044C8.12109 71.3442 9.21032 72.4335 10.5502 72.4335H69.4513C70.7912 72.4335 71.8804 71.3442 71.8804 70.0044C71.8774 68.6645 70.7875 67.5753 69.4477 67.5753ZM63.6734 32.2134C60.8205 32.2134 58.4989 29.8947 58.4989 27.0419L58.5019 19.9963H68.8479V27.0419C68.8479 29.8918 66.5261 32.2134 63.6734 32.2134ZM22.9845 20.1126L23.0502 19.9932H33.3305V27.0388C33.3305 29.8916 31.0088 32.2103 28.159 32.2103C25.3062 32.2103 22.9845 29.8916 22.9845 27.0388L22.9845 20.1126ZM39.9974 10.1486H43.7305L44.9571 18.5045H35.0197L36.1298 10.1486H39.9974ZM34.8259 19.9965H45.1719V27.042C45.1719 29.8949 42.8503 32.2135 40.0005 32.2135C37.1476 32.2135 34.829 29.8948 34.829 27.042L34.8259 19.9965ZM46.6609 19.9965H56.974L57.0068 20.0711V27.042C57.0068 29.8949 54.6852 32.2135 51.8324 32.2135C48.9795 32.2135 46.6609 29.8948 46.6609 27.042L46.6609 19.9965ZM68.0511 18.5044H57.9618L54.3957 10.1485H61.4443L68.0511 18.5044ZM52.7724 10.1485L56.3384 18.5044H46.4638L45.2373 10.1485H52.7724ZM34.6258 10.1485L33.5157 18.5044H23.8916L28.5946 10.1485H34.6258ZM18.5533 10.1485H26.8848L22.1819 18.5044H11.9436L18.5533 10.1485ZM11.1467 19.9964H21.4927V27.042C21.4927 29.8948 19.171 32.2134 16.3212 32.2134C13.4684 32.2134 11.1497 29.8947 11.1497 27.042L11.1467 19.9964ZM12.8029 32.6877C13.8264 33.3263 15.0291 33.7023 16.3212 33.7023C18.8965 33.7023 21.1317 32.2311 22.2388 30.0885C23.3488 32.2311 25.584 33.7023 28.1593 33.7023C30.7346 33.7023 32.9697 32.2311 34.0768 30.0885C35.1869 32.2311 37.422 33.7023 39.9944 33.7023C42.5697 33.7023 44.8048 32.2311 45.9119 30.0885C47.022 32.2311 49.2541 33.7023 51.8294 33.7023C54.4047 33.7023 56.6399 32.2311 57.75 30.0885C58.86 32.2311 61.0952 33.7023 63.6705 33.7023C64.9626 33.7023 66.1682 33.3263 67.1918 32.6847V67.5722L32.9039 67.5752V42.5265C32.9039 40.1392 30.9642 38.1994 28.5769 38.1994H20.9644C18.5771 38.1994 16.6374 40.1392 16.6374 42.5265V67.5752H12.7999V32.6877L12.8029 32.6877ZM18.1296 67.5752V42.5265C18.1296 40.9627 19.4009 39.6916 20.9645 39.6916H28.577C30.1407 39.6916 31.4119 40.9628 31.4119 42.5265V67.5752H18.1296ZM69.4479 70.9413H10.5468C10.0305 70.9413 9.60973 70.5205 9.60973 70.0042C9.60973 69.4879 10.0305 69.0672 10.5468 69.0672H69.4479C69.9641 69.0672 70.3849 69.4879 70.3849 70.0042C70.3849 70.5205 69.9642 70.9413 69.4479 70.9413Z" fill="#EB9646"/>
</svg>
