<svg width="41" height="41" viewBox="0 0 41 41" fill="none" xmlns="http://www.w3.org/2000/svg">
<path d="M0.425781 8.32129C0.425781 3.90301 4.0075 0.321289 8.42578 0.321289H32.4258C36.8441 0.321289 40.4258 3.90301 40.4258 8.32129V32.3213C40.4258 36.7396 36.8441 40.3213 32.4258 40.3213H8.42578C4.0075 40.3213 0.425781 36.7396 0.425781 32.3213V8.32129Z" fill="white"/>
<g clip-path="url(#clip0_104_834)">
<path d="M30.4258 20.3213C30.4258 14.7985 25.9486 10.3213 20.4258 10.3213C14.9029 10.3213 10.4258 14.7985 10.4258 20.3213C10.4258 25.0111 13.6544 28.9462 18.01 30.0268V23.3771H15.9479V20.3213H18.01V19.0045C18.01 15.6009 19.5503 14.0233 22.8919 14.0233C23.5255 14.0233 24.6186 14.1475 25.0658 14.2717V17.0419C24.8298 17.017 24.4199 17.0046 23.9105 17.0046C22.2708 17.0046 21.6373 17.6257 21.6373 19.2406V20.3213H24.9036L24.3425 23.3771H21.6373V30.248C26.5887 29.65 30.4258 25.434 30.4258 20.3213Z" fill="#0866FF"/>
<path d="M24.3418 23.3771L24.903 20.3213H21.6366V19.2405C21.6366 17.6257 22.2701 17.0046 23.9099 17.0046C24.4192 17.0046 24.8291 17.017 25.0651 17.0418V14.2717C24.6179 14.1475 23.5248 14.0232 22.8913 14.0232C19.5497 14.0232 18.0093 15.6009 18.0093 19.0045V20.3213H15.9473V23.3771H18.0093V30.0268C18.7831 30.2187 19.5921 30.3213 20.4251 30.3213C20.8353 30.3213 21.2394 30.296 21.6366 30.248V23.3771H24.3418Z" fill="white"/>
</g>
<defs>
<clipPath id="clip0_104_834">
<rect width="20" height="20" fill="white" transform="translate(10.4258 10.3213)"/>
</clipPath>
</defs>
</svg>
