<svg width="1600" height="213" viewBox="0 0 1600 213" fill="none" xmlns="http://www.w3.org/2000/svg">
<path d="M123.226 70.2886H91.7809C90.5715 63.5696 88.3206 57.6568 85.0283 52.5504C81.736 47.444 77.7046 43.1102 72.9341 39.5491C68.1636 35.9881 62.822 33.3005 56.9093 31.4863C51.0638 29.6722 44.8487 28.7651 38.2641 28.7651C26.3714 28.7651 15.7218 31.7551 6.31519 37.735C-3.02422 43.7149 -10.4151 52.4832 -15.8575 64.0399C-21.2327 75.5966 -23.9203 89.7065 -23.9203 106.37C-23.9203 123.167 -21.2327 137.344 -15.8575 148.901C-10.4151 160.458 -2.99063 169.192 6.41597 175.105C15.8226 181.018 26.405 183.974 38.1633 183.974C44.6807 183.974 50.8622 183.101 56.7077 181.354C62.6204 179.54 67.962 176.886 72.7325 173.392C77.503 169.898 81.5344 165.631 84.8267 160.592C88.1862 155.486 90.5043 149.64 91.7809 143.055L123.226 143.156C121.546 153.302 118.287 162.641 113.45 171.174C108.679 179.64 102.531 186.964 95.006 193.146C87.5479 199.26 79.0148 203.997 69.4066 207.356C59.7984 210.716 49.3168 212.395 37.9617 212.395C20.0891 212.395 4.16511 208.162 -9.81041 199.697C-23.7859 191.163 -34.8051 178.968 -42.8679 163.112C-50.8635 147.255 -54.8613 128.341 -54.8613 106.37C-54.8613 84.3313 -50.8299 65.4173 -42.7671 49.6276C-34.7043 33.7708 -23.6852 21.6094 -9.70963 13.1435C4.2659 4.61032 20.1563 0.34375 37.9617 0.34375C48.9137 0.34375 59.1265 1.92272 68.6003 5.08066C78.1413 8.17139 86.7081 12.7403 94.3005 18.7874C101.893 24.7673 108.175 32.091 113.147 40.7585C118.119 49.3589 121.479 59.2022 123.226 70.2886Z" fill="#272727" fill-opacity="0.07"/>
<path d="M339.788 106.37C339.788 128.408 335.756 147.356 327.693 163.212C319.631 179.002 308.578 191.163 294.535 199.697C280.56 208.162 264.669 212.395 246.864 212.395C228.991 212.395 213.034 208.162 198.991 199.697C185.015 191.163 173.996 178.968 165.933 163.112C157.871 147.255 153.839 128.341 153.839 106.37C153.839 84.3313 157.871 65.4173 165.933 49.6276C173.996 33.7708 185.015 21.6094 198.991 13.1435C213.034 4.61032 228.991 0.34375 246.864 0.34375C264.669 0.34375 280.56 4.61032 294.535 13.1435C308.578 21.6094 319.631 33.7708 327.693 49.6276C335.756 65.4173 339.788 84.3313 339.788 106.37ZM308.947 106.37C308.947 89.5721 306.226 75.4286 300.784 63.9391C295.409 52.3824 288.018 43.6477 278.611 37.735C269.272 31.7551 258.689 28.7651 246.864 28.7651C234.971 28.7651 224.355 31.7551 215.016 37.735C205.676 43.6477 198.285 52.3824 192.843 63.9391C187.468 75.4286 184.78 89.5721 184.78 106.37C184.78 123.167 187.468 137.344 192.843 148.901C198.285 160.39 205.676 169.125 215.016 175.105C224.355 181.018 234.971 183.974 246.864 183.974C258.689 183.974 269.272 181.018 278.611 175.105C288.018 169.125 295.409 160.39 300.784 148.901C306.226 137.344 308.947 123.167 308.947 106.37Z" fill="#272727" fill-opacity="0.07"/>
<path d="M378.615 209.573V3.16573H452.188C468.179 3.16573 481.449 5.92052 491.998 11.4301C502.614 16.9397 510.543 24.5658 515.784 34.3083C521.024 43.9837 523.645 55.1708 523.645 67.8697C523.645 80.5014 520.991 91.6214 515.683 101.23C510.442 110.771 502.513 118.195 491.897 123.503C481.349 128.811 468.079 131.465 452.087 131.465H396.353V104.656H449.265C459.344 104.656 467.541 103.212 473.857 100.323C480.24 97.4333 484.91 93.234 487.866 87.7244C490.822 82.2148 492.301 75.5966 492.301 67.8697C492.301 60.0757 490.789 53.3231 487.765 47.6119C484.809 41.9008 480.139 37.5334 473.756 34.5099C467.44 31.4191 459.142 29.8738 448.862 29.8738H409.758V209.573H378.615ZM480.509 116.448L531.506 209.573H496.03L446.04 116.448H480.509Z" fill="#272727" fill-opacity="0.07"/>
<path d="M561.54 209.573V3.16573H690.948V29.9746H592.682V92.8644H684.195V119.572H592.682V182.765H692.157V209.573H561.54Z" fill="#272727" fill-opacity="0.07"/>
<path d="M979.092 70.2886H947.647C946.438 63.5696 944.187 57.6568 940.895 52.5504C937.603 47.444 933.571 43.1102 928.801 39.5491C924.03 35.9881 918.688 33.3005 912.776 31.4863C906.93 29.6722 900.715 28.7651 894.131 28.7651C882.238 28.7651 871.588 31.7551 862.182 37.735C852.842 43.7149 845.451 52.4832 840.009 64.0399C834.634 75.5966 831.946 89.7065 831.946 106.37C831.946 123.167 834.634 137.344 840.009 148.901C845.451 160.458 852.876 169.192 862.282 175.105C871.689 181.018 882.272 183.974 894.03 183.974C900.547 183.974 906.729 183.101 912.574 181.354C918.487 179.54 923.829 176.886 928.599 173.392C933.37 169.898 937.401 165.631 940.693 160.592C944.053 155.486 946.371 149.64 947.647 143.055L979.092 143.156C977.413 153.302 974.154 162.641 969.316 171.174C964.546 179.64 958.398 186.964 950.873 193.146C943.414 199.26 934.881 203.997 925.273 207.356C915.665 210.716 905.183 212.395 893.828 212.395C875.956 212.395 860.032 208.162 846.056 199.697C832.081 191.163 821.061 178.968 812.999 163.112C805.003 147.255 801.005 128.341 801.005 106.37C801.005 84.3313 805.037 65.4173 813.099 49.6276C821.162 33.7708 832.181 21.6094 846.157 13.1435C860.132 4.61032 876.023 0.34375 893.828 0.34375C904.78 0.34375 914.993 1.92272 924.467 5.08066C934.008 8.17139 942.575 12.7403 950.167 18.7874C957.76 24.7673 964.042 32.091 969.014 40.7585C973.986 49.3589 977.345 59.2022 979.092 70.2886Z" fill="#272727" fill-opacity="0.07"/>
<path d="M1016.36 209.573V3.16573H1089.93C1105.92 3.16573 1119.19 5.92052 1129.74 11.4301C1140.36 16.9397 1148.29 24.5658 1153.53 34.3083C1158.77 43.9837 1161.39 55.1708 1161.39 67.8697C1161.39 80.5014 1158.73 91.6214 1153.43 101.23C1148.18 110.771 1140.26 118.195 1129.64 123.503C1119.09 128.811 1105.82 131.465 1089.83 131.465H1034.1V104.656H1087.01C1097.09 104.656 1105.28 103.212 1111.6 100.323C1117.98 97.4333 1122.65 93.234 1125.61 87.7244C1128.56 82.2148 1130.04 75.5966 1130.04 67.8697C1130.04 60.0757 1128.53 53.3231 1125.51 47.6119C1122.55 41.9008 1117.88 37.5334 1111.5 34.5099C1105.18 31.4191 1096.88 29.8738 1086.6 29.8738H1047.5V209.573H1016.36ZM1118.25 116.448L1169.25 209.573H1133.77L1083.78 116.448H1118.25Z" fill="#272727" fill-opacity="0.07"/>
<path d="M1199.28 3.16573H1237.08L1302.79 163.616H1305.21L1370.92 3.16573H1408.71V209.573H1379.08V60.2101H1377.17L1316.29 209.271H1291.7L1230.83 60.1093H1228.91V209.573H1199.28V3.16573Z" fill="#272727" fill-opacity="0.07"/>
<path d="M1477.47 3.16573V22.5165C1477.47 28.2276 1476.4 34.2411 1474.25 40.557C1472.17 46.8057 1469.21 52.8192 1465.38 58.5975C1461.55 64.3758 1457.05 69.3479 1451.87 73.5137L1436.96 62.8305C1440.92 57.0521 1444.35 50.9042 1447.24 44.3868C1450.2 37.8694 1451.67 30.68 1451.67 22.8188V3.16573H1477.47Z" fill="#272727" fill-opacity="0.07"/>
<path d="M1623.11 57.3881C1622.03 47.8471 1617.6 40.4562 1609.81 35.2154C1602.01 29.9074 1592.2 27.2534 1580.38 27.2534C1571.91 27.2534 1564.59 28.5972 1558.4 31.2848C1552.22 33.9052 1547.42 37.5334 1543.99 42.1695C1540.63 46.7385 1538.95 51.9457 1538.95 57.7912C1538.95 62.6961 1540.1 66.9291 1542.38 70.4901C1544.73 74.0512 1547.79 77.0412 1551.55 79.46C1555.38 81.8117 1559.48 83.7938 1563.85 85.4063C1568.21 86.9517 1572.41 88.2283 1576.45 89.2362L1596.6 94.477C1603.19 96.0895 1609.94 98.2732 1616.86 101.028C1623.78 103.783 1630.2 107.411 1636.11 111.913C1642.02 116.415 1646.79 121.991 1650.42 128.643C1654.12 135.295 1655.96 143.257 1655.96 152.529C1655.96 164.22 1652.94 174.601 1646.89 183.672C1640.91 192.742 1632.21 199.898 1620.79 205.139C1609.44 210.38 1595.7 213 1579.57 213C1564.12 213 1550.74 210.548 1539.46 205.643C1528.17 200.738 1519.33 193.784 1512.95 184.78C1506.57 175.71 1503.04 164.959 1502.37 152.529H1533.61C1534.22 159.987 1536.64 166.202 1540.87 171.174C1545.17 176.079 1550.64 179.741 1557.3 182.16C1564.02 184.512 1571.37 185.687 1579.37 185.687C1588.17 185.687 1596 184.31 1602.85 181.555C1609.77 178.733 1615.21 174.836 1619.18 169.864C1623.14 164.825 1625.12 158.946 1625.12 152.227C1625.12 146.113 1623.38 141.107 1619.88 137.21C1616.46 133.313 1611.79 130.088 1605.87 127.534C1600.03 124.981 1593.41 122.73 1586.02 120.782L1561.63 114.13C1545.1 109.628 1532 103.01 1522.32 94.2754C1512.72 85.5407 1507.91 73.984 1507.91 59.6054C1507.91 47.7127 1511.14 37.3319 1517.59 28.4628C1524.04 19.5937 1532.77 12.7067 1543.79 7.80185C1554.81 2.82978 1567.24 0.34375 1581.08 0.34375C1595.06 0.34375 1607.39 2.79619 1618.07 7.70106C1628.82 12.6059 1637.29 19.3585 1643.47 27.9588C1649.65 36.492 1652.87 46.3017 1653.14 57.3881H1623.11Z" fill="#272727" fill-opacity="0.07"/>
</svg>
