<svg width="80" height="81" viewBox="0 0 80 81" fill="none" xmlns="http://www.w3.org/2000/svg">
<path fill-rule="evenodd" clip-rule="evenodd" d="M47.1752 56.3404L49.9988 66.9574L63.1974 53.7596C64.6596 52.2223 65.7406 50.3633 66.3533 48.3321C66.9979 46.4986 67.1305 44.5241 66.7367 42.621L66.2471 40.7838C62.7714 45.7438 58.3363 49.9564 53.2042 53.1725C51.2779 54.3801 49.2624 55.4391 47.1752 56.3404ZM54.5373 26.0077C55.8672 27.3366 56.6951 29.0855 56.88 30.9565C57.0649 32.8274 56.5953 34.7046 55.5512 36.2681C54.5071 37.8316 52.9532 38.9846 51.1543 39.5308C49.3553 40.077 47.4226 39.9824 45.6855 39.2633C43.9484 38.5442 42.5145 37.2449 41.628 35.587C40.7415 33.9291 40.4573 32.0151 40.8239 30.1711C41.1905 28.3271 42.1851 26.6673 43.6384 25.4746C45.0916 24.2818 46.9135 23.6298 48.7935 23.6298C49.8603 23.6284 50.9169 23.8377 51.9026 24.2458C52.8883 24.6538 53.7837 25.2526 54.5373 26.0077ZM55.0302 31.7507C55.0299 30.3081 54.5296 28.9102 53.6143 27.7952C52.699 26.6802 51.4254 25.9169 50.0105 25.6356C48.5956 25.3542 47.127 25.5721 45.8547 26.2522C44.5825 26.9322 43.5853 28.0323 43.0332 29.3651C42.4811 30.6978 42.4081 32.1808 42.8268 33.5613C43.2454 34.9418 44.1297 36.1345 45.3291 36.9361C46.5284 37.7378 47.9686 38.0988 49.4043 37.9577C50.84 37.8166 52.1823 37.1821 53.2026 36.1622C53.7831 35.5838 54.2435 34.8962 54.5571 34.139C54.8708 33.3819 55.0315 32.5702 55.0302 31.7507ZM57.9328 22.613C60.0469 24.7274 61.3624 27.5094 61.6552 30.4849C61.9481 33.4605 61.2001 36.4456 59.5388 38.9315C57.8776 41.4175 55.4057 43.2505 52.5445 44.1183C49.6832 44.9861 46.6096 44.8349 43.8473 43.6906C41.085 42.5463 38.8049 40.4796 37.3955 37.8426C35.9861 35.2057 35.5347 32.1616 36.1181 29.2291C36.7014 26.2967 38.2835 23.6572 40.5948 21.7604C42.9061 19.8636 45.8036 18.8269 48.7935 18.8269C50.4912 18.8247 52.1726 19.1581 53.741 19.8078C55.3095 20.4576 56.734 21.4109 57.9328 22.613ZM59.8323 31.7507C59.8321 34.304 58.9467 36.7782 57.3269 38.7518C55.7071 40.7254 53.453 42.0764 50.9488 42.5744C48.4446 43.0725 45.8452 42.6869 43.5934 41.4833C41.3417 40.2797 39.5769 38.3327 38.5997 35.9738C37.6226 33.6149 37.4935 30.9902 38.2346 28.5469C38.9756 26.1035 40.5409 23.9927 42.6638 22.5741C44.7866 21.1554 47.3357 20.5167 49.8767 20.7667C52.4176 21.0168 54.7933 22.1401 56.5989 23.9453C57.6255 24.9692 58.4396 26.1859 58.9945 27.5254C59.5493 28.8649 59.8341 30.3008 59.8323 31.7507ZM7.6944 72.8514C11.3426 73.3212 15.0491 72.737 18.3759 71.1679C21.7028 69.5988 24.5111 67.1103 26.4691 63.9964C27.1331 62.936 27.6902 61.8122 28.1321 60.6417L19.905 52.4145C18.7345 52.8567 17.6108 53.4138 16.5502 54.0775C13.4299 56.0279 10.9363 58.8344 9.36653 62.1625C7.7968 65.4906 7.21719 69.1999 7.6968 72.8482L7.6944 72.8514ZM16.6317 73.8898C13.4369 74.9128 10.0446 75.1606 6.7351 74.6127C6.53608 74.5849 6.35117 74.4942 6.20744 74.3538C6.06371 74.2134 5.96871 74.0306 5.93634 73.8323C5.24984 69.7214 5.79751 65.4992 7.51012 61.6995C9.22274 57.8998 12.0234 54.6931 15.5581 52.4848C16.8939 51.6461 18.3206 50.9617 19.8107 50.4448C19.9811 50.3779 20.1673 50.3624 20.3464 50.4C20.5254 50.4376 20.6896 50.5267 20.8187 50.6564L29.8902 59.7311C30.0145 59.8561 30.1014 60.0134 30.141 60.1851C30.1807 60.3569 30.1715 60.5363 30.1146 60.7032C29.5951 62.2063 28.9056 63.6451 28.0594 64.9917C25.4214 69.2147 21.3727 72.3666 16.6317 73.8882V73.8898ZM42.6431 56.8955L38.0854 61.4484C37.9979 61.536 37.894 61.6054 37.7796 61.6528C37.6652 61.7002 37.5426 61.7246 37.4188 61.7246C37.295 61.7246 37.1725 61.7002 37.0581 61.6528C36.9437 61.6054 36.8398 61.536 36.7523 61.4484L19.0934 43.7935C18.9166 43.6166 18.8172 43.3767 18.8172 43.1266C18.8172 42.8764 18.9166 42.6365 19.0934 42.4596L23.6463 37.9067L23.2134 37.4754C23.0844 37.3454 22.9957 37.1808 22.9581 37.0015C22.9206 36.8222 22.9357 36.6359 23.0017 36.465C23.1551 36.0187 23.317 35.5746 23.4874 35.1326L11.5268 31.944C11.3666 31.9024 11.2202 31.8192 11.1025 31.7028C10.9848 31.5864 10.9 31.4409 10.8567 31.2811C10.8133 31.1213 10.8131 30.9529 10.8559 30.793C10.8986 30.633 10.983 30.4873 11.1003 30.3705L25.4539 16.0161C27.2093 14.3406 29.3334 13.1004 31.6554 12.3953C33.8262 11.6457 36.1609 11.5056 38.4057 11.9903L41.8699 12.9081C44.9728 10.9876 48.299 9.454 51.7745 8.34163C58.6146 6.15442 65.8775 5.62843 72.9614 6.80722C73.1596 6.83942 73.3423 6.9344 73.4825 7.07819C73.6227 7.22199 73.713 7.40699 73.7402 7.60598C74.915 14.6837 74.3879 21.9393 72.2026 28.773C71.0892 32.2483 69.5551 35.5745 67.6345 38.6775L68.5571 42.1441C69.042 44.389 68.9013 46.7239 68.1505 48.8944C67.4468 51.2166 66.2071 53.3409 64.5314 55.0959L50.1777 69.4479C50.0592 69.5654 49.9118 69.6497 49.7504 69.6923C49.5092 69.7549 49.2529 69.7195 49.0377 69.5938C48.8225 69.4681 48.6658 69.2623 48.6018 69.0214L45.4196 57.0561C44.9643 57.2294 44.5082 57.3963 44.0505 57.5537C43.8835 57.6111 43.7037 57.6205 43.5315 57.5808C43.3594 57.5411 43.2019 57.454 43.0768 57.3292L42.6447 56.8971L42.6431 56.8955ZM41.3092 55.5616L24.9834 39.2351L21.0935 43.1258L37.4192 59.4515L41.3092 55.5616ZM24.2055 33.3714C25.1063 31.2837 26.1653 29.2679 27.3733 27.3416C30.5895 22.2081 34.8033 17.7723 39.7652 14.2971L37.928 13.8075C36.0245 13.4135 34.0496 13.5466 32.2162 14.1925C30.1834 14.8049 28.323 15.8861 26.7846 17.3492L13.5884 30.547L24.2055 33.3714ZM70.4118 28.1947C68.3186 34.7238 64.6923 40.6568 59.8363 45.4973C57.5317 47.8072 54.9729 49.8488 52.209 51.583C49.6194 53.2039 46.8637 54.5428 43.989 55.5768L43.3093 54.897L25.6504 37.2366L24.9715 36.5568C26.0049 33.6814 27.3438 30.9251 28.9652 28.3352C33.425 21.2009 39.8744 15.5271 47.519 12.013C55.1635 8.49884 63.6691 7.29788 71.9877 8.55809C72.9774 15.1378 72.4381 21.857 70.4118 28.1947Z" fill="#EB9646"/>
</svg>
