<svg width="41" height="41" viewBox="0 0 41 41" fill="none" xmlns="http://www.w3.org/2000/svg">
<path d="M0.425781 8.32129C0.425781 3.90301 4.0075 0.321289 8.42578 0.321289H32.4258C36.8441 0.321289 40.4258 3.90301 40.4258 8.32129V32.3213C40.4258 36.7396 36.8441 40.3213 32.4258 40.3213H8.42578C4.0075 40.3213 0.425781 36.7396 0.425781 32.3213V8.32129Z" fill="white"/>
<g clip-path="url(#clip0_104_841)">
<path d="M30.0271 15.4759C29.9141 15.0504 29.6912 14.6621 29.3809 14.3498C29.0706 14.0375 28.6837 13.8121 28.2589 13.6963C26.6953 13.2759 20.4453 13.2759 20.4453 13.2759C20.4453 13.2759 14.1953 13.2759 12.6317 13.6963C12.2069 13.8121 11.82 14.0375 11.5097 14.3498C11.1994 14.6621 10.9766 15.0504 10.8635 15.4759C10.4453 17.0463 10.4453 20.3213 10.4453 20.3213C10.4453 20.3213 10.4453 23.5963 10.8635 25.1668C10.9766 25.5923 11.1994 25.9806 11.5097 26.2929C11.82 26.6052 12.2069 26.8305 12.6317 26.9463C14.1953 27.3668 20.4453 27.3668 20.4453 27.3668C20.4453 27.3668 26.6953 27.3668 28.2589 26.9463C28.6837 26.8305 29.0706 26.6052 29.3809 26.2929C29.6912 25.9806 29.9141 25.5923 30.0271 25.1668C30.4453 23.5963 30.4453 20.3213 30.4453 20.3213C30.4453 20.3213 30.4453 17.0463 30.0271 15.4759Z" fill="#FF0302"/>
<path d="M18.4004 23.2954V17.3477L23.6277 20.3215L18.4004 23.2954Z" fill="#FEFEFE"/>
</g>
<defs>
<clipPath id="clip0_104_841">
<rect width="20" height="20" fill="white" transform="translate(10.4258 10.3213)"/>
</clipPath>
</defs>
</svg>
