<?xml version="1.0" encoding="UTF-8"?>
<svg version="1.1" xmlns="http://www.w3.org/2000/svg" width="300" height="225">
<path d="M0 0 C86.46 0 172.92 0 262 0 C262 39.6 262 79.2 262 120 C175.54 120 89.08 120 0 120 C0 80.4 0 40.8 0 0 Z " fill="#050302" transform="translate(18,53)"/>
<path d="M0 0 C5.17958811 2.99378492 7.47793976 6.18381929 9.375 11.875 C9.48375781 13.8412216 9.53389614 15.81088537 9.55200195 17.7800293 C9.57125481 19.60288704 9.57125481 19.60288704 9.59089661 21.46257019 C9.59828354 22.77816422 9.60567047 24.09375824 9.61328125 25.44921875 C9.61735678 26.12050119 9.6214323 26.79178364 9.62563133 27.48340797 C9.64647792 31.03930984 9.66078342 34.59517333 9.67016602 38.15112305 C9.68120344 41.80835729 9.71557537 45.46497856 9.75533772 49.12199688 C9.78159885 51.94717978 9.78986637 54.77221901 9.79344749 57.5975132 C9.8006348 59.5959963 9.82703604 61.59438082 9.85383606 63.59269714 C9.83542755 71.33849553 9.49746344 77.46602609 3.96284485 83.38529968 C-2.27696421 88.96795164 -8.16221671 89.32252302 -16.23828125 89.1875 C-22.27246966 88.63071214 -25.04371485 86.42034685 -29.375 82.1875 C-34.99613948 74.76289487 -35.09217749 66.05348186 -35.09375 57.09765625 C-35.10517029 55.28786537 -35.10517029 55.28786537 -35.11682129 53.44151306 C-35.12758216 50.90088969 -35.13049183 48.36022223 -35.12597656 45.81958008 C-35.12500378 41.95253172 -35.16668692 38.08746591 -35.2109375 34.22070312 C-35.21614494 31.7421916 -35.21883269 29.26367324 -35.21875 26.78515625 C-35.23514526 25.64007095 -35.25154053 24.49498566 -35.26843262 23.31520081 C-35.20489026 15.86283102 -33.96231411 10.05383586 -29.625 3.875 C-21.71199828 -3.65584745 -9.76956779 -4.54263063 0 0 Z " fill="#E69343" transform="translate(114.625,69.125)"/>
<path d="M0 0 C12.87 0 25.74 0 39 0 C39 29.7 39 59.4 39 90 C26.13 90 13.26 90 0 90 C0 60.3 0 30.6 0 0 Z " fill="#E06F60" transform="translate(227,68)"/>
<path d="M0 0 C34 0 34 0 41 6 C43.8611281 11.14135153 43.36777124 16.63536098 43.375 22.375 C43.39949219 23.39078125 43.42398438 24.4065625 43.44921875 25.453125 C43.47428512 31.88682625 42.79888607 35.76064412 39 41 C38.34 41.66 37.68 42.32 37 43 C37.639375 43.61875 38.27875 44.2375 38.9375 44.875 C42.79809124 48.85257885 42.12906133 52.68427181 42.09765625 57.9453125 C42.0962413 58.8303244 42.09482635 59.7153363 42.09336853 60.62716675 C42.0877614 63.45981191 42.07520771 66.29237864 42.0625 69.125 C42.05748592 71.04296761 42.05292285 72.96093646 42.04882812 74.87890625 C42.03778966 79.58596782 42.02052025 84.2929706 42 89 C36.39 89 30.78 89 25 89 C24.67 76.46 24.34 63.92 24 51 C22.02 50.34 20.04 49.68 18 49 C18 62.2 18 75.4 18 89 C12.06 89 6.12 89 0 89 C0 59.63 0 30.26 0 0 Z " fill="#E99544" transform="translate(132,68)"/>
<path d="M0 0 C5.27077408 2.71789455 9.18253907 6.7976172 11.0625 12.4375 C11.14459792 14.21063851 11.16996294 15.98670775 11.16015625 17.76171875 C11.15693359 18.78974609 11.15371094 19.81777344 11.15039062 20.87695312 C11.13782227 22.48473633 11.13782227 22.48473633 11.125 24.125 C11.12048828 25.20845703 11.11597656 26.29191406 11.11132812 27.40820312 C11.09953757 30.08465894 11.08160208 32.76108639 11.0625 35.4375 C5.1225 35.4375 -0.8175 35.4375 -6.9375 35.4375 C-7.4325 26.0325 -7.4325 26.0325 -7.9375 16.4375 C-9.9175 16.1075 -11.8975 15.7775 -13.9375 15.4375 C-13.9375 34.2475 -13.9375 53.0575 -13.9375 72.4375 C-12.2875 72.4375 -10.6375 72.4375 -8.9375 72.4375 C-7.76280556 70.08811112 -7.73715111 68.48676795 -7.62109375 65.8671875 C-7.57919922 64.97128906 -7.53730469 64.07539063 -7.49414062 63.15234375 C-7.45482422 62.21519531 -7.41550781 61.27804688 -7.375 60.3125 C-7.33181641 59.36761719 -7.28863281 58.42273438 -7.24414062 57.44921875 C-7.1379106 55.11215828 -7.03718729 52.7748487 -6.9375 50.4375 C-0.9975 50.4375 4.9425 50.4375 11.0625 50.4375 C11.17095368 54.43823585 11.25004625 58.435999 11.3125 62.4375 C11.36277344 64.12552734 11.36277344 64.12552734 11.4140625 65.84765625 C11.49662022 72.90634159 10.88888546 77.45264069 7.0625 83.4375 C1.88129558 88.61870442 -3.77775348 89.7264482 -10.9375 89.75 C-12.113125 89.76675781 -13.28875 89.78351563 -14.5 89.80078125 C-20.775358 89.13759001 -24.9745554 86.23474873 -28.9375 81.4375 C-33.17101488 74.41684161 -33.51368305 67.88814751 -33.43359375 59.84375 C-33.43504898 58.65704712 -33.43650421 57.47034424 -33.43800354 56.24768066 C-33.4363507 53.74989353 -33.42485885 51.25209556 -33.40405273 48.75439453 C-33.3750883 44.94910045 -33.38346075 41.14520091 -33.39648438 37.33984375 C-33.39024627 34.90363912 -33.38185478 32.46743885 -33.37109375 30.03125 C-33.37402939 28.9028772 -33.37696503 27.77450439 -33.37998962 26.61193848 C-33.28176771 18.31528666 -32.15075004 10.19541672 -26.9375 3.4375 C-19.04901551 -2.47886337 -9.30839081 -3.71067027 0 0 Z " fill="#E69343" transform="translate(63.9375,68.5625)"/>
<path d="M0 0 C11.55 0 23.1 0 35 0 C35 5.61 35 11.22 35 17 C29.39 17 23.78 17 18 17 C18 22.61 18 28.22 18 34 C23.61 34 29.22 34 35 34 C35 39.94 35 45.88 35 52 C29.39 52 23.78 52 18 52 C18 58.6 18 65.2 18 72 C23.94 72 29.88 72 36 72 C36 77.61 36 83.22 36 89 C24.12 89 12.24 89 0 89 C0 59.63 0 30.26 0 0 Z " fill="#E89544" transform="translate(182,68)"/>
<path d="M0 0 C2.4375 0.1875 2.4375 0.1875 3.4375 1.1875 C3.54153846 2.89522422 3.57603224 4.60723806 3.58276367 6.31811523 C3.58914352 7.41272568 3.59552338 8.50733612 3.60209656 9.63511658 C3.60320938 10.82673904 3.6043222 12.01836151 3.60546875 13.24609375 C3.60879715 14.46071793 3.61212555 15.6753421 3.61555481 16.92677307 C3.62062923 19.50171529 3.62296298 22.07666411 3.62280273 24.65161133 C3.62498863 28.60443897 3.64313762 32.55698745 3.66210938 36.50976562 C3.66504322 39.00520737 3.66702808 41.50065045 3.66796875 43.99609375 C3.67515427 45.18569199 3.68233978 46.37529022 3.68974304 47.60093689 C3.68666641 48.69869949 3.68358978 49.7964621 3.68041992 50.92749023 C3.68184494 51.8971019 3.68326996 52.86671356 3.68473816 53.8657074 C3.4375 56.1875 3.4375 56.1875 1.4375 58.1875 C-1.49703261 57.82068342 -2.42687246 57.32312754 -4.5625 55.1875 C-4.81646729 52.94836426 -4.81646729 52.94836426 -4.82128906 50.12695312 C-4.83074554 48.54521301 -4.83074554 48.54521301 -4.84039307 46.93151855 C-4.8363446 45.78880493 -4.83229614 44.64609131 -4.828125 43.46875 C-4.83003845 42.29993286 -4.8319519 41.13111572 -4.83392334 39.92687988 C-4.83528626 37.45206487 -4.83158241 34.97724274 -4.82324219 32.50244141 C-4.81254446 28.70328795 -4.82313418 24.90460741 -4.8359375 21.10546875 C-4.83461592 18.70572812 -4.83205357 16.30598778 -4.828125 13.90625 C-4.83217346 12.76353638 -4.83622192 11.62082275 -4.84039307 10.44348145 C-4.83408875 9.38898804 -4.82778442 8.33449463 -4.82128906 7.24804688 C-4.81969788 6.3169812 -4.81810669 5.38591553 -4.81646729 4.42663574 C-4.4311955 1.02983675 -3.35646297 0.24559485 0 0 Z " fill="#040301" transform="translate(102.5625,83.8125)"/>
<path d="M0 0 C6.93 0 13.86 0 21 0 C21 1.65 21 3.3 21 5 C17.7 5.33 14.4 5.66 11 6 C14.3 6.66 17.6 7.32 21 8 C21 9.65 21 11.3 21 13 C17.03302114 14.80317221 13.3177458 15.49202991 9 16 C12.96 16.33 16.92 16.66 21 17 C21 18.65 21 20.3 21 22 C14.07 22 7.14 22 0 22 C0 19.03 0 16.06 0 13 C3.3 12.34 6.6 11.68 10 11 C6.7 10.34 3.4 9.68 0 9 C0 6.03 0 3.06 0 0 Z " fill="#FDF8F8" transform="translate(234,98)"/>
<path d="M0 0 C0.99 0.33 1.98 0.66 3 1 C4.72795352 1.06802967 6.45835365 1.08495645 8.1875 1.0625 C9.08855469 1.05347656 9.98960937 1.04445313 10.91796875 1.03515625 C11.94857422 1.01775391 11.94857422 1.01775391 13 1 C13 2.65 13 4.3 13 6 C10.03 6 7.06 6 4 6 C4 6.66 4 7.32 4 8 C6.97 8 9.94 8 13 8 C13 9.98 13 11.96 13 14 C6.07 14 -0.86 14 -8 14 C-8.29296875 4.8203125 -8.29296875 4.8203125 -8 2 C-4.73718826 -0.17520782 -3.7659092 -0.28244319 0 0 Z " fill="#FCF3F2" transform="translate(242,121)"/>
<path d="M0 0 C0.94875 0.04125 1.8975 0.0825 2.875 0.125 C2.875 1.775 2.875 3.425 2.875 5.125 C1.555 5.125 0.235 5.125 -1.125 5.125 C-1.125 6.115 -1.125 7.105 -1.125 8.125 C3.165 8.125 7.455 8.125 11.875 8.125 C11.875 7.135 11.875 6.145 11.875 5.125 C10.225 5.125 8.575 5.125 6.875 5.125 C6.875 3.475 6.875 1.825 6.875 0.125 C12.24342105 -0.23289474 12.24342105 -0.23289474 14.75 1.1875 C16.52296631 4.24094197 16.23843372 6.67237962 15.875 10.125 C14.8203125 12.3203125 14.8203125 12.3203125 12.875 14.125 C10.20948124 14.50621721 8.02657379 14.64078456 5.375 14.5625 C4.69824219 14.56958984 4.02148438 14.57667969 3.32421875 14.58398438 C0.47245289 14.54742327 -1.63838893 14.43510485 -4.07421875 12.8828125 C-5.41424188 10.64113812 -5.49320481 9.16348632 -5.4375 6.5625 C-5.43363281 5.77746094 -5.42976562 4.99242187 -5.42578125 4.18359375 C-4.89083775 0.52235705 -3.5370215 0.14148086 0 0 Z " fill="#FDF6F5" transform="translate(239.125,136.875)"/>
<path d="M0 0 C1.32 0 2.64 0 4 0 C4 1.98 4 3.96 4 6 C3.34 6 2.68 6 2 6 C2 6.66 2 7.32 2 8 C2.763125 7.236875 3.52625 6.47375 4.3125 5.6875 C5.199375 4.800625 6.08625 3.91375 7 3 C7.45375 2.401875 7.9075 1.80375 8.375 1.1875 C11.1141784 -0.81420729 13.7437662 -0.29602125 17 0 C19.60704898 2.60704898 19.23905333 4.47338241 19.265625 8.02734375 C19 10 19 10 17 13 C13.875 13.1875 13.875 13.1875 11 13 C11 11.35 11 9.7 11 8 C12.32 8 13.64 8 15 8 C15 7.01 15 6.02 15 5 C11.92371603 6.62359432 10.1200673 7.83345504 8.0625 10.6875 C6 13 6 13 2.875 13.4375 C0 13 0 13 -2 11 C-2.265625 8.90625 -2.265625 8.90625 -2.25 6.5 C-2.25515625 5.7059375 -2.2603125 4.911875 -2.265625 4.09375 C-2 2 -2 2 0 0 Z " fill="#FDF7F6" transform="translate(236,75)"/>
<path d="M0 0 C2.31 0 4.62 0 7 0 C8.72095223 1.72095223 8.17199761 3.97163914 8.1875 6.3125 C8.20167969 7.27800781 8.21585938 8.24351563 8.23046875 9.23828125 C7.99873224 12.01519158 7.42140844 13.63473141 6 16 C4.02 16 2.04 16 0 16 C0 10.72 0 5.44 0 0 Z " fill="#0D0803" transform="translate(150,85)"/>
<path d="M0 0 C6.93 0 13.86 0 21 0 C17.23312136 1.88343932 15.97041037 2.22057835 12 2 C12 3.65 12 5.3 12 7 C13.65 7 15.3 7 17 7 C17 7.99 17 8.98 17 10 C12.71 10 8.42 10 4 10 C4 9.01 4 8.02 4 7 C5.32 7 6.64 7 8 7 C8 5.35 8 3.7 8 2 C5.36 1.67 2.72 1.34 0 1 C0 0.67 0 0.34 0 0 Z " fill="#E57E71" transform="translate(234,135)"/>
<path d="M0 0 C2.97 0.495 2.97 0.495 6 1 C6 1.99 6 2.98 6 4 C5.01 4 4.02 4 3 4 C3 4.66 3 5.32 3 6 C2.01 6 1.02 6 0 6 C0 4.02 0 2.04 0 0 Z " fill="#FDF9F9" transform="translate(234,90)"/>
<path d="M0 0 C4.29 0.33 8.58 0.66 13 1 C13 1.33 13 1.66 13 2 C7.06 2.495 7.06 2.495 1 3 C0.67 2.01 0.34 1.02 0 0 Z " fill="#E58073" transform="translate(242,120)"/>
</svg>
